<svg width="50" height="36" viewBox="0 0 50 36" fill="none" xmlns="http://www.w3.org/2000/svg">
<path fill-rule="evenodd" clip-rule="evenodd" d="M31.1441 0.419317L31.4149 0.214772C31.6858 0 31.7899 0 37.123 0C41.2269 0.0102262 42.5914 0.040908 42.7164 0.132953C43.0914 0.40909 43.1226 0.664772 43.1226 3.10909V5.52273H44.258C45.2371 5.52273 45.4246 5.55341 45.6642 5.7375L45.935 5.94205V7.90568C45.935 9.76705 45.9246 9.86932 45.7058 10.0943C45.5183 10.2886 45.3725 10.3295 44.8205 10.3295C44.4559 10.3295 44.1643 10.35 44.1643 10.3705C44.1643 10.3909 44.3309 10.7489 44.5288 11.158C45.0913 12.3239 45.31 13.3364 45.31 14.717C45.31 16.558 44.9038 17.8875 43.8934 19.4011C43.2997 20.2705 42.2269 21.3239 41.4873 21.7534C41.2373 21.8966 41.0394 22.0295 41.0394 22.05C41.0394 22.0705 41.3936 22.2443 41.8206 22.4386C46.4141 24.525 49.6431 29.2602 49.966 34.4045C50.0285 35.458 50.0285 35.4682 49.7577 35.7341L49.4869 36H0.510389L0.260402 35.7443C-0.0520805 35.4477 -0.0833288 34.9364 0.166658 33.7807C0.385396 32.7273 0.760375 31.8375 1.35409 30.958C1.8749 30.1807 2.91651 29.1375 3.56231 28.7489L3.9477 28.5239L3.51022 27.992C2.7811 27.1125 2.56236 26.4989 2.55194 25.3636C2.55194 24.4841 2.58319 24.3307 2.88526 23.7068C3.34357 22.7557 3.92687 22.1625 4.87473 21.7023C5.62469 21.3443 5.71844 21.3239 6.65589 21.3239C7.56209 21.3239 7.71833 21.3545 8.35371 21.6511C9.32241 22.1011 9.92654 22.6739 10.3953 23.6045C10.7598 24.3409 10.7807 24.433 10.7807 25.3534C10.7702 26.4989 10.5515 27.1125 9.82238 27.9818L9.3849 28.5136L9.82238 28.7898C10.062 28.9432 10.3536 29.158 10.4682 29.2602C10.6765 29.4443 10.6973 29.4341 11.5931 28.5852C12.5826 27.6545 13.8847 26.7443 14.8221 26.3352C15.1554 26.2023 15.4158 26.0693 15.4158 26.0489C15.4158 26.0284 15.1554 25.8341 14.8429 25.6193C13.5826 24.7705 12.5202 23.3489 12.0098 21.8352C11.7702 21.1193 11.7389 20.8534 11.7285 19.6364C11.7285 18.4193 11.7598 18.1636 11.9993 17.4682C12.416 16.2511 12.9576 15.3818 13.8951 14.4614C14.8325 13.5409 15.7179 13.0091 16.9574 12.6C17.6553 12.3648 17.9365 12.3341 19.1656 12.3341C20.3947 12.3341 20.676 12.3648 21.3738 12.6C22.6133 13.0091 23.4987 13.5409 24.4362 14.4614C25.3736 15.3818 25.9152 16.2511 26.3319 17.4682C26.5715 18.1534 26.6027 18.4295 26.6027 19.6364C26.6027 20.8636 26.5715 21.1091 26.3215 21.8352C25.8111 23.3489 24.7486 24.7705 23.4883 25.6193C23.1758 25.8341 22.9154 26.0284 22.9154 26.0386C22.9154 26.0591 23.3216 26.2739 23.8112 26.5091C24.3008 26.7545 25.0299 27.1943 25.4361 27.4909C25.8423 27.7875 26.2069 28.0023 26.2486 27.9511C26.2902 27.9102 26.5715 27.5011 26.8735 27.0511C27.561 26.0489 29.488 24.1466 30.4671 23.5023C31.1962 23.0318 32.3836 22.408 32.9565 22.1932L33.2482 22.0909L32.6128 21.6818C31.2379 20.8023 29.9775 19.2273 29.3838 17.6318C28.6026 15.5148 28.7172 13.1011 29.6963 11.0864C29.863 10.7386 29.9984 10.4216 29.9984 10.3909C29.9984 10.3602 29.6963 10.3295 29.3317 10.3295C28.7276 10.3295 28.6339 10.2989 28.4464 10.0636C28.238 9.80795 28.2276 9.65455 28.2276 7.90568C28.2276 6.04432 28.2276 6.02386 28.488 5.77841C28.7276 5.53295 28.8005 5.52273 29.9463 5.52273H31.1441V0.419317ZM41.4561 5.52273V1.63636H32.8107V5.52273H41.4561ZM44.2684 8.69318V7.15909H29.8942V8.69318H44.2684ZM43.6434 14.7375C43.6434 13.2443 43.2476 12.017 42.3727 10.7591L42.0706 10.3295H32.1962L31.8733 10.708C31.1025 11.6284 30.5192 13.3568 30.5192 14.717C30.5296 16.5784 31.2066 18.1636 32.5503 19.483C33.9565 20.8636 35.4772 21.4466 37.4459 21.3443C39.4041 21.242 40.904 20.4648 42.2164 18.8898C43.1747 17.7341 43.6434 16.3739 43.6434 14.7375ZM23.2696 15.6068C22.4884 14.8295 21.2905 14.1955 20.2697 14.0216C17.6553 13.5511 15.0929 14.8091 13.9576 17.1205C11.541 22.0193 16.7387 27.1227 21.728 24.75C25.3007 23.0523 26.0923 18.3682 23.2696 15.6068ZM9.04117 24.6068C8.87452 24.0443 8.00998 23.1955 7.43709 23.0318C6.45798 22.7557 5.67677 22.95 4.94765 23.6761C3.8852 24.7091 3.8852 26.0182 4.94765 27.0511C5.99967 28.0943 7.33293 28.0943 8.38496 27.0511C9.1245 26.3352 9.33282 25.5682 9.04117 24.6068ZM44.5496 26.3045C43.081 24.842 41.1852 23.7477 39.3728 23.3182C38.3417 23.0727 36.6647 22.9807 35.7793 23.1136C31.8628 23.7068 28.3734 26.642 26.7381 30.733C26.3631 31.6432 25.9361 33.4432 25.9361 34.0466V34.3636H48.3203L48.2682 33.975C47.8516 30.825 46.6954 28.442 44.5496 26.3045ZM25.009 29.2295C23.8945 28.2682 22.1238 27.4193 20.6447 27.1432C17.1657 26.4886 13.4993 28.217 11.1348 31.6227C10.6973 32.2568 9.79113 34.0057 9.79113 34.2307C9.79113 34.3432 11.0931 34.3636 17.0303 34.3636H24.2695V34.0773C24.2695 33.4432 24.6237 31.7966 24.9882 30.7023L25.384 29.5466L25.009 29.2295ZM9.46823 30.5591C8.90576 30.1193 8.35371 29.8125 7.78083 29.6386C6.97879 29.3932 6.23924 29.4136 5.41637 29.6898C4.2081 30.0886 3.20816 30.9784 2.46862 32.3182C2.12488 32.9318 1.77074 33.9136 1.77074 34.2307C1.77074 34.333 2.37487 34.3636 4.88515 34.3636H7.99956L8.18705 33.8216C8.44746 33.0443 8.91618 32.0625 9.34324 31.367L9.71822 30.7534L9.46823 30.5591Z" fill="black"/>
<path d="M14.4263 1.38075C14.0826 1.04325 14.093 0.664836 14.468 0.296654L14.7701 6.33109e-05H20.2281L20.8322 0.593245V6.04438L20.5718 6.28984C20.4156 6.45347 20.1968 6.54552 19.9989 6.54552C19.801 6.54552 19.5823 6.45347 19.426 6.28984C19.1761 6.04438 19.1656 6.00347 19.1656 4.42847V2.81256L10.1766 11.6387C1.91659 19.7387 1.16663 20.4546 0.854146 20.4546C0.624992 20.4546 0.427086 20.3728 0.260429 20.1989C-0.020806 19.933 -0.0624704 19.6467 0.114603 19.2989C0.1771 19.1762 4.21855 15.1467 9.1037 10.3501L17.9678 1.63643H16.3221C14.718 1.63643 14.6763 1.6262 14.4263 1.38075Z" fill="black"/>
</svg>
