<svg width="50" height="48" viewBox="0 0 50 48" fill="none" xmlns="http://www.w3.org/2000/svg">
<path fill-rule="evenodd" clip-rule="evenodd" d="M18.9258 15.6041C19.4727 14.2828 21.3574 13.3508 23.8477 13.1562C27.4512 12.8796 30.3516 13.8629 31.0742 15.6041C31.25 16.024 31.2598 16.2698 31.2305 18.6767L31.2012 21.2885L30.9277 21.7801C30.1563 23.1423 27.9785 23.9412 25 23.9412C22.0215 23.9412 19.834 23.1423 19.0625 21.7698L18.7988 21.2885L18.7695 18.6767C18.7402 16.2698 18.75 16.024 18.9258 15.6041ZM29.0723 16.3517C29.1309 16.1571 27.9492 15.6348 27.0605 15.4607C26.0742 15.2661 23.8574 15.2558 22.9492 15.4504C21.8164 15.686 20.8008 16.1776 20.9473 16.4132C21.0547 16.6078 21.7285 16.9253 22.5293 17.1609C23.1934 17.3657 23.5156 17.3964 25 17.3964C26.4844 17.3862 26.8164 17.3555 27.4902 17.1609C28.3105 16.9151 29.0137 16.5566 29.0723 16.3517ZM25 19.537C23.1543 19.537 22.9297 19.5166 22.0703 19.2708C21.5625 19.1274 21.0645 18.9737 20.9766 18.9328C20.8203 18.8713 20.8008 18.943 20.8008 19.7931V20.7251L21.1719 20.9709C22.1094 21.6162 24.2969 21.9644 26.0742 21.7596C27.2949 21.6264 28.3008 21.3397 28.8379 20.9709L29.1992 20.7251V19.7931C29.1992 18.943 29.1797 18.8713 29.0332 18.9328C28.9355 18.9737 28.4375 19.1274 27.9297 19.2708C27.0703 19.5166 26.8457 19.537 25 19.537Z" fill="white"/>
<path fill-rule="evenodd" clip-rule="evenodd" d="M18.9355 2.47363C19.4727 1.17288 21.3672 0.240844 23.8477 0.0462427C27.4316 -0.230294 30.3516 0.752949 31.0645 2.47363C31.2109 2.83211 31.25 3.1701 31.25 4.18407V5.44386L32.8711 6.33492L34.502 7.22599L35.1953 7.01091C38.1348 6.1096 42.3437 6.61146 43.8965 8.04536C44.6973 8.7828 44.7656 9.03885 44.8047 11.0975L44.8437 12.8899L45.6348 13.3303C46.0742 13.5659 47.1777 14.1599 48.0762 14.6516C49.3164 15.3173 49.7559 15.6041 49.8633 15.8192C49.9805 16.065 50 17.5091 50 25.3034V34.5008L37.666 41.2504C28.1738 46.4432 25.2637 48 25 48C24.4922 48 0.410156 34.7979 0.175781 34.3779C0.00976562 34.1116 0 33.4766 0 25.0985C0 17.5501 0.0195313 16.065 0.136719 15.8294C0.244141 15.6143 0.693359 15.3173 1.92383 14.6516C2.4562 14.3663 3.06058 14.0379 3.55613 13.7686C3.89688 13.5835 4.18618 13.4263 4.36523 13.3303L5.15625 12.8899L5.19531 11.0975C5.22461 9.47927 5.24414 9.26418 5.43945 8.88522C6.16211 7.45132 8.41797 6.58074 11.3672 6.58074C12.8711 6.58074 13.7402 6.68316 14.8047 7.01091L15.498 7.22599L17.1289 6.33492L18.75 5.44386V4.18407C18.75 3.1701 18.7891 2.83211 18.9355 2.47363ZM29.0723 3.24179C29.1309 3.04719 27.9492 2.52484 27.0605 2.35073C26.0742 2.15613 23.8574 2.14588 22.9492 2.34048C21.8164 2.57605 20.8008 3.06768 20.9473 3.30325C21.0547 3.49785 21.7285 3.81536 22.5293 4.05092C23.1934 4.25577 23.5156 4.28649 25 4.28649C26.4844 4.27625 26.8164 4.24553 27.4902 4.05092C28.3105 3.80511 29.0137 3.44664 29.0723 3.24179ZM25 6.4271C23.1543 6.4271 22.9297 6.40662 22.0703 6.16081C21.5625 6.01742 21.0645 5.86379 20.9766 5.82282C20.8203 5.76136 20.8008 5.83306 20.8008 6.68316V7.61519L21.1719 7.86101C22.1094 8.50626 24.2969 8.8545 26.0742 8.64965C27.2949 8.5165 28.3008 8.22972 28.8379 7.86101L29.1992 7.61519V6.68316C29.1992 5.83306 29.1797 5.76136 29.0332 5.82282C28.9355 5.86379 28.4375 6.01742 27.9297 6.16081C27.0703 6.40662 26.8457 6.4271 25 6.4271ZM19.9316 9.58169C19.3945 9.20273 18.8477 8.45505 18.8477 8.10682C18.8477 8.0044 18.7891 7.92246 18.7305 7.92246C18.5645 7.92246 17.3828 8.62917 17.3828 8.72134C17.3926 8.76231 17.4512 8.9057 17.5293 9.0491C17.6367 9.25394 17.666 9.84798 17.6758 11.9579C17.6758 14.9691 17.6465 15.1432 16.8945 15.8499C14.5898 18.0315 7.85156 17.9086 5.85937 15.645L5.43945 15.1637L4.45312 15.7065C3.90625 16.0035 3.4375 16.2801 3.39844 16.3108C3.33008 16.3722 24.1992 27.8742 24.834 28.1405C25.0098 28.2122 26.9727 27.1675 35.8691 22.3024C41.8164 19.0454 46.6504 16.3518 46.6113 16.321C46.5625 16.2801 46.0937 16.0035 45.5469 15.7065L44.5605 15.1637L44.1309 15.6553C43.0078 16.9356 40.1465 17.6525 37.3242 17.3657C34.8242 17.1097 33.0859 16.2698 32.5293 15.051C32.334 14.6516 32.3242 14.4365 32.3242 11.9988C32.3242 9.90944 32.3535 9.30515 32.4707 9.01837L32.6172 8.64965L31.9922 8.28093C31.2988 7.87125 31.1523 7.84052 31.1523 8.10682C31.1523 8.45505 30.5762 9.2437 30.0586 9.60217C28.8574 10.442 27.2363 10.8312 25 10.8312C22.7344 10.8312 21.1133 10.4318 19.9316 9.58169ZM15.5664 9.81726C15.5859 9.6329 14.3262 9.05934 13.5547 8.89546C12.627 8.70086 10.2832 8.70086 9.375 8.89546C8.54492 9.06958 7.68555 9.41781 7.48047 9.65338C7.31445 9.83774 7.32422 9.85822 7.74414 10.1143C8.58398 10.6366 9.54102 10.821 11.377 10.8312C12.6465 10.8415 13.2031 10.8005 13.7695 10.6571C14.541 10.4728 15.5566 9.99137 15.5664 9.81726ZM42.5293 9.66362C42.3047 9.40757 41.4453 9.06958 40.5469 8.88522C39.6094 8.70086 37.2852 8.7111 36.377 8.9057C35.6641 9.05934 34.4336 9.64314 34.4336 9.81726C34.4336 9.98113 35.4492 10.4625 36.1816 10.6469C37.1094 10.8722 39.043 10.9541 40.0391 10.8005C40.9961 10.6469 41.9141 10.3601 42.373 10.0733C42.6855 9.86847 42.6953 9.84798 42.5293 9.66362ZM15.127 12.4905C13.3496 13.146 10.1758 13.2176 8.27148 12.6338C7.93945 12.5314 7.58789 12.4188 7.5 12.3778C7.34375 12.3061 7.32422 12.388 7.32422 13.2791V14.2624L7.93945 14.5696C8.87695 15.0612 9.78516 15.2251 11.4746 15.2354C13.3594 15.2354 14.8047 14.8974 15.459 14.2931C15.5957 14.1702 15.625 13.9653 15.625 13.2279C15.625 12.7363 15.6055 12.3266 15.5859 12.3266C15.5664 12.3266 15.3613 12.3983 15.127 12.4905ZM42.5098 12.3778C40.6738 13.1972 36.9238 13.2484 34.873 12.4905C34.6387 12.3983 34.4336 12.3266 34.4141 12.3266C34.3945 12.3266 34.375 12.7363 34.375 13.2279C34.375 13.9653 34.4043 14.1702 34.5508 14.2931C35.1953 14.8974 36.6406 15.2354 38.5254 15.2354C40.2148 15.2251 41.123 15.0612 42.0703 14.5696L42.6758 14.2624V13.2791C42.6758 12.388 42.6562 12.3163 42.5098 12.3778ZM23.9258 30.0865L13.0762 24.1563C7.10937 20.889 2.1875 18.1953 2.13867 18.1851C2.08984 18.1646 2.05078 21.0734 2.05078 25.6619V33.1694L12.9004 39.1098C18.877 42.3771 23.7988 45.0605 23.8379 45.081C23.8867 45.1015 23.9258 41.7933 23.9258 37.6042V30.0865ZM47.9492 33.1694V25.6721C47.9492 21.5445 47.9199 18.1646 47.8809 18.1749C47.832 18.1851 42.9102 20.8685 36.9434 24.1358L26.0742 30.0967V37.6042C26.0742 42.0083 26.1133 45.1015 26.1621 45.081C26.2109 45.0707 31.1328 42.3771 37.0996 39.1098L47.9492 33.1694Z" fill="white"/>
</svg>
