<svg width="29" height="25" viewBox="0 0 29 25" fill="none" xmlns="http://www.w3.org/2000/svg">
<g clip-path="url(#clip0_17_16)">
<path d="M26.4688 20.9995H13.2712C12.48 21.0021 11.7113 20.7409 11.0901 20.2584C10.469 19.776 10.0321 19.1008 9.85061 18.3427L9.50202 16.9057C9.50305 16.8968 9.50305 16.8878 9.50202 16.8789L6.6261 5.03198H28.5958V14.0747C28.5944 14.958 28.2373 15.8048 27.6027 16.4295C26.9682 17.0541 26.108 17.4056 25.2106 17.407H11.0244L11.166 18.0317C11.2768 18.496 11.5442 18.9097 11.9246 19.2053C12.3049 19.5008 12.7758 19.6607 13.2603 19.659H26.4688C26.6494 19.659 26.8226 19.7296 26.9503 19.8553C27.078 19.981 27.1497 20.1515 27.1497 20.3292C27.1497 20.507 27.078 20.6775 26.9503 20.8032C26.8226 20.9289 26.6494 20.9995 26.4688 20.9995ZM10.7003 16.0666H25.2106C25.4764 16.0666 25.7395 16.0151 25.985 15.915C26.2305 15.8149 26.4535 15.6681 26.6414 15.4832C26.8293 15.2982 26.9784 15.0786 27.0801 14.837C27.1818 14.5953 27.2341 14.3363 27.2341 14.0747V6.37244H8.35274L10.7003 16.0666Z" fill="black"/>
<path d="M7.48937 6.37253C7.34356 6.37247 7.20162 6.32633 7.08444 6.24091C6.96727 6.15549 6.88105 6.03529 6.83847 5.89801L5.87711 2.7962C5.74882 2.37381 5.48499 2.00369 5.12512 1.74126C4.76525 1.47883 4.3287 1.33821 3.88085 1.34047H0.680851C0.500278 1.34047 0.327101 1.26986 0.199417 1.14416C0.0717324 1.01847 0 0.847997 0 0.670242C0 0.492487 0.0717324 0.322012 0.199417 0.19632C0.327101 0.0706281 0.500278 1.517e-05 0.680851 1.517e-05H3.88085C4.62183 -0.0021693 5.34365 0.231621 5.93854 0.666481C6.53344 1.10134 6.9695 1.71395 7.18162 2.41283L8.14026 5.51464C8.19291 5.68457 8.17487 5.86813 8.0901 6.02498C8.00533 6.18182 7.86076 6.29912 7.68817 6.35108C7.62349 6.36862 7.55637 6.37586 7.48937 6.37253Z" fill="black"/>
<path d="M14.2979 24.6241C13.9511 24.6241 13.612 24.5228 13.3235 24.3331C13.0351 24.1434 12.8103 23.8738 12.6776 23.5583C12.5448 23.2428 12.5101 22.8957 12.5778 22.5608C12.6454 22.2259 12.8125 21.9182 13.0578 21.6768C13.303 21.4353 13.6156 21.2709 13.9558 21.2043C14.296 21.1376 14.6486 21.1718 14.9691 21.3025C15.2896 21.4332 15.5635 21.6545 15.7562 21.9384C15.949 22.2223 16.0518 22.5561 16.0518 22.8976C16.0511 23.3553 15.8661 23.794 15.5373 24.1176C15.2086 24.4413 14.7629 24.6234 14.2979 24.6241ZM14.2979 22.5115C14.2204 22.5115 14.1446 22.5342 14.0801 22.5766C14.0156 22.619 13.9653 22.6793 13.9356 22.7499C13.9059 22.8204 13.8982 22.898 13.9133 22.9729C13.9284 23.0478 13.9658 23.1166 14.0206 23.1706C14.0755 23.2246 14.1454 23.2613 14.2214 23.2762C14.2975 23.2911 14.3764 23.2835 14.448 23.2543C14.5197 23.225 14.5809 23.1756 14.624 23.1121C14.6671 23.0486 14.6901 22.9739 14.6901 22.8976C14.688 22.7966 14.6457 22.7005 14.5724 22.6298C14.4991 22.5591 14.4006 22.5196 14.2979 22.5196V22.5115Z" fill="black"/>
<path d="M23.947 24.6241C23.6001 24.6241 23.261 24.5228 22.9726 24.3331C22.6842 24.1434 22.4594 23.8738 22.3266 23.5583C22.1939 23.2428 22.1591 22.8957 22.2268 22.5608C22.2945 22.2259 22.4615 21.9182 22.7068 21.6768C22.9521 21.4353 23.2646 21.2709 23.6048 21.2043C23.945 21.1376 24.2977 21.1718 24.6182 21.3025C24.9386 21.4332 25.2126 21.6545 25.4053 21.9384C25.598 22.2223 25.7009 22.5561 25.7009 22.8976C25.7001 23.3553 25.5151 23.794 25.1864 24.1176C24.8576 24.4413 24.4119 24.6234 23.947 24.6241ZM23.947 22.5115C23.8694 22.5115 23.7936 22.5342 23.7291 22.5766C23.6646 22.619 23.6144 22.6793 23.5847 22.7499C23.555 22.8204 23.5472 22.898 23.5624 22.9729C23.5775 23.0478 23.6148 23.1166 23.6697 23.1706C23.7245 23.2246 23.7944 23.2613 23.8705 23.2762C23.9466 23.2911 24.0254 23.2835 24.0971 23.2543C24.1687 23.225 24.23 23.1756 24.2731 23.1121C24.3162 23.0486 24.3392 22.9739 24.3392 22.8976C24.337 22.7966 24.2948 22.7005 24.2214 22.6298C24.1481 22.5591 24.0496 22.5196 23.947 22.5196V22.5115Z" fill="black"/>
</g>
<defs>
<clipPath id="clip0_17_16">
<rect width="28.5958" height="24.6241" fill="white"/>
</clipPath>
</defs>
</svg>
