<svg width="28" height="28" viewBox="0 0 28 28" fill="none" xmlns="http://www.w3.org/2000/svg">
<circle cx="14" cy="14" r="14" fill="black"/>
<path d="M14 6C11.78 6 9.95996 7.8 9.95996 10.04C9.95996 12.26 11.76 14.08 14 14.08C16.22 14.08 18.04 12.28 18.04 10.04C18.04 7.8 16.22 6 14 6ZM14 12.04C12.88 12.04 11.98 11.14 11.98 10.02C11.98 8.9 12.88 8 14 8C15.12 8 16.02 8.9 16.02 10.02C16.02 11.14 15.12 12.04 14 12.04Z" fill="white"/>
<path d="M19.9398 14.7001C19.5798 14.0401 18.7398 13.8001 18.0798 14.1801C15.3398 15.7201 12.6598 15.7201 9.91981 14.1801C9.25981 13.8001 8.41981 14.0401 8.05981 14.7001C7.67981 15.3601 7.91981 16.2001 8.57981 16.5601C9.51981 17.1001 10.4798 17.4801 11.4398 17.7401L9.49981 19.6801C8.95981 20.2201 8.95981 21.0801 9.49981 21.6001C10.0398 22.1401 10.8998 22.1401 11.4198 21.6001L13.9998 19.0201L16.5798 21.6001C17.1198 22.1401 17.9798 22.1401 18.4998 21.6001C19.0398 21.0601 19.0398 20.2001 18.4998 19.6801L16.5598 17.7401C17.5198 17.4801 18.4798 17.1001 19.4198 16.5601C20.0798 16.1801 20.3198 15.3601 19.9398 14.7001Z" fill="white"/>
</svg>
