<svg width="25" height="25" viewBox="0 0 25 25" fill="none" xmlns="http://www.w3.org/2000/svg">
<g clip-path="url(#clip0_17_26)">
<path d="M12.4362 23.8771L2.10572 13.5392C0.748969 12.1463 0 10.3148 0 8.3845C0 4.31859 3.29977 1.01648 7.36279 1.01648C9.18573 1.01648 11.0089 1.80845 12.4362 3.20138C13.8636 1.80845 15.6865 1.01648 17.5095 1.01648C21.5725 1.01648 24.8723 4.31859 24.8723 8.3845C24.8723 10.3219 24.1233 12.1533 22.7667 13.5392L12.4362 23.8771ZM7.36279 2.14777C3.92163 2.14777 1.13049 4.9409 1.13049 8.3845C1.13049 10.025 1.76643 11.5735 2.91121 12.7473L12.4362 22.2791L21.9683 12.7402C23.1129 11.5735 23.7418 10.025 23.7418 8.3845C23.7418 4.94794 20.9506 2.14777 17.5095 2.14777C15.8279 2.14777 14.125 2.96792 12.8602 4.39628L12.4362 4.87005L12.0123 4.39628C10.7474 2.96792 9.04455 2.14777 7.36279 2.14777Z" fill="black"/>
</g>
<defs>
<clipPath id="clip0_17_26">
<rect width="24.8723" height="24.8723" fill="white"/>
</clipPath>
</defs>
</svg>
