<svg width="60" height="60" viewBox="0 0 60 60" fill="none" xmlns="http://www.w3.org/2000/svg">
<g clip-path="url(#clip0_251_509)">
<path d="M38.2477 41.197C37.8077 40.867 37.1796 40.955 36.8486 41.397C36.5166 41.838 36.6067 42.465 37.0487 42.796L37.7866 43.349C36.7516 44.598 34.0977 47.371 30.5497 47.906C28.2887 48.243 25.9977 47.588 23.7477 45.972L24.2487 45.596C24.6897 45.265 24.7787 44.638 24.4477 44.196C24.1167 43.755 23.4907 43.667 23.0477 43.997L20.2477 46.098C19.8067 46.429 19.7177 47.056 20.0487 47.498C20.2447 47.76 20.5457 47.897 20.8497 47.897C21.0587 47.897 21.2687 47.832 21.4497 47.697L22.0747 47.228C24.4387 49.067 26.8797 49.998 29.3507 49.998C29.8487 49.998 30.3477 49.96 30.8487 49.885C35.1457 49.238 38.2187 45.989 39.3897 44.553L39.8486 44.897C40.0287 45.032 40.2387 45.097 40.4477 45.097C40.7527 45.097 41.0517 44.959 41.2487 44.697C41.5807 44.256 41.4907 43.629 41.0487 43.298L38.2477 41.197Z" fill="#CA5331"/>
<path d="M24.165 34.658C24.358 34.877 24.634 34.997 24.916 34.997C25.024 34.997 25.133 34.979 25.239 34.943C25.622 34.812 25.888 34.464 25.914 34.06C26.031 32.22 25.339 30.301 24.014 28.796C22.689 27.29 20.873 26.36 19.034 26.243C18.48 26.223 18.007 26.627 17.972 27.178C17.937 27.73 18.356 28.204 18.907 28.24C20.221 28.323 21.536 29.008 22.513 30.118C22.934 30.597 23.269 31.128 23.507 31.682C21.038 30.47 17.977 30.781 15.787 32.706C15.373 33.071 15.333 33.703 15.697 34.118C16.063 34.533 16.694 34.571 17.109 34.208C19.179 32.387 22.345 32.589 24.165 34.658Z" fill="black"/>
<path d="M39.2773 23.977C35.4183 23.977 32.2773 27.118 32.2773 30.977C32.2773 34.836 35.4183 37.977 39.2773 37.977C43.1363 37.977 46.2773 34.836 46.2773 30.977C46.2773 27.118 43.1373 23.977 39.2773 23.977ZM39.2773 35.977C36.5203 35.977 34.2773 33.734 34.2773 30.977C34.2773 28.22 36.5203 25.977 39.2773 25.977C42.0343 25.977 44.2773 28.22 44.2773 30.977C44.2773 33.734 42.0343 35.977 39.2773 35.977Z" fill="black"/>
<path d="M39.2773 32.977C40.3819 32.977 41.2773 32.0816 41.2773 30.977C41.2773 29.8724 40.3819 28.977 39.2773 28.977C38.1728 28.977 37.2773 29.8724 37.2773 30.977C37.2773 32.0816 38.1728 32.977 39.2773 32.977Z" fill="black"/>
<path d="M56.2688 18.84C55.7058 14.758 53.9458 11.234 51.4438 9.172C50.7998 8.642 50.3288 7.807 50.0418 6.693C49.2158 3.485 46.1948 1.242 42.3478 0.978C40.2078 0.832 38.3538 1.495 36.3198 2.309C36.2488 2.337 36.1658 2.337 36.0428 2.259C35.6268 1.153 34.6828 0.392 33.3848 0.116C30.3818 -0.51 25.7478 1.427 22.0298 4.81C22.0358 3.92 22.2208 3.123 22.7248 2.872L24.4098 2.029L22.7678 1.105C21.0288 0.129 16.8418 -0.932 13.4338 2.05C12.1968 3.133 11.2968 4.646 10.8348 6.427C10.7398 6.791 10.6438 7.182 10.5578 7.567C10.5208 7.733 10.3838 7.784 10.3268 7.797C10.2178 7.822 10.1298 7.796 10.0288 7.675C9.49382 7.023 8.68982 6.697 7.85882 6.817C7.06282 6.93 6.39782 7.438 6.07782 8.179C4.10982 12.747 0.429822 24.373 8.27782 34.318V50.976C8.27782 53.733 10.5208 55.976 13.2778 55.976H16.2778V57.671C16.2778 58.942 17.3118 59.976 18.5838 59.976H41.9728C43.2438 59.976 44.2788 58.942 44.2788 57.671V55.976H47.2788C50.0358 55.976 52.2788 53.733 52.2788 50.976V34.371C53.4498 33.053 57.5018 27.76 56.2688 18.84ZM7.91382 8.971C7.93082 8.934 7.97782 8.821 8.13682 8.798C8.18582 8.794 8.35282 8.783 8.52982 9C9.08482 9.663 9.95582 9.945 10.7998 9.74C11.6608 9.531 12.3178 8.865 12.5098 8.005C12.5918 7.643 12.6828 7.274 12.7718 6.929C13.1328 5.539 13.8178 4.372 14.7508 3.556C16.8458 1.721 19.1658 1.96 20.5518 2.361C20.0518 3.309 19.9038 4.641 20.1328 6.274C20.2088 6.812 20.5758 7.253 21.0918 7.423C21.6138 7.593 22.1808 7.457 22.5698 7.065C26.3788 3.199 30.7708 1.608 32.9688 2.075C33.9088 2.274 34.1058 2.795 34.1698 2.966C34.3678 3.491 34.7668 3.908 35.2928 4.14C35.8498 4.384 36.4948 4.394 37.0608 4.168C38.9278 3.421 40.4938 2.852 42.2098 2.976C44.5758 3.137 47.3658 4.33 48.1038 7.193C48.4998 8.725 49.1948 9.911 50.1708 10.716C51.1738 11.543 53.5828 14.016 54.2878 19.114C55.0558 24.669 53.5888 28.631 52.2778 30.925V18.977V17.23L50.7708 18.115C48.3148 19.559 46.1668 20.003 44.3858 19.429C44.1088 19.34 43.8508 19.229 43.6118 19.103C43.5518 19.072 43.5048 19.032 43.4478 18.999C43.2758 18.899 43.1038 18.798 42.9528 18.686C42.8998 18.647 42.8588 18.604 42.8078 18.563C42.6668 18.45 42.5248 18.337 42.4038 18.22C42.3498 18.168 42.3098 18.117 42.2598 18.066C42.1568 17.958 42.0498 17.85 41.9618 17.745C41.9108 17.683 41.8738 17.629 41.8278 17.57C41.7578 17.48 41.6818 17.386 41.6238 17.303C41.5818 17.242 41.5538 17.195 41.5178 17.139C41.4728 17.069 41.4198 16.992 41.3848 16.933C41.3638 16.898 41.3548 16.879 41.3378 16.848C41.2508 16.694 41.1968 16.584 41.1948 16.581L40.9748 16.073L40.4288 15.989C30.8348 14.515 26.1668 18.527 24.8588 19.929C17.8938 19.174 14.8728 17.172 14.8458 17.155L14.1058 16.642L13.5188 17.325C13.1298 17.778 12.7248 18.175 12.3178 18.523C11.0968 19.568 9.85482 20.172 8.92982 20.513L8.27682 20.754V21.451V30.819C3.37682 22.632 5.84182 13.783 7.91382 8.971ZM42.2778 57.672C42.2778 57.84 42.1408 57.977 41.9718 57.977H18.5838C18.4148 57.977 18.2778 57.84 18.2778 57.672V55.977H42.2778V57.672ZM50.2778 50.977C50.2778 52.631 48.9318 53.977 47.2778 53.977H44.2778H16.2778H13.2778C11.6238 53.977 10.2778 52.631 10.2778 50.977V36.788V22.127C11.5088 21.595 13.0458 20.705 14.4738 19.242C15.8808 19.972 19.2808 21.4 25.1808 21.971L25.7428 22.021L26.0798 21.573C26.2358 21.365 29.9708 16.582 39.6298 17.893C40.1458 18.783 41.4278 20.566 43.7428 21.322C45.6948 21.96 47.8868 21.727 50.2778 20.629V36.347V50.977Z" fill="black"/>
</g>
<defs>
<clipPath id="clip0_251_509">
<rect width="59.977" height="59.977" fill="white"/>
</clipPath>
</defs>
</svg>
