<svg width="60" height="60" viewBox="0 0 60 60" fill="none" xmlns="http://www.w3.org/2000/svg">
<g clip-path="url(#clip0_251_563)">
<path d="M30.2793 41.673C27.5223 41.673 25.2793 43.916 25.2793 46.673C25.2793 49.43 27.5223 51.673 30.2793 51.673C33.0363 51.673 35.2793 49.43 35.2793 46.673C35.2793 43.916 33.0363 41.673 30.2793 41.673ZM30.2793 49.673C28.6253 49.673 27.2793 48.327 27.2793 46.673C27.2793 45.019 28.6253 43.673 30.2793 43.673C31.9333 43.673 33.2793 45.019 33.2793 46.673C33.2793 48.327 31.9333 49.673 30.2793 49.673Z" fill="#CA5331"/>
<path d="M39.2793 23.978C35.4193 23.978 32.2793 27.119 32.2793 30.978C32.2793 34.837 35.4193 37.978 39.2793 37.978C43.1393 37.978 46.2793 34.837 46.2793 30.978C46.2793 27.119 43.1393 23.978 39.2793 23.978ZM39.2793 35.978C36.5223 35.978 34.2793 33.735 34.2793 30.978C34.2793 28.221 36.5223 25.978 39.2793 25.978C42.0363 25.978 44.2793 28.221 44.2793 30.978C44.2793 33.735 42.0363 35.978 39.2793 35.978Z" fill="black"/>
<path d="M39.2793 32.978C40.3839 32.978 41.2793 32.0826 41.2793 30.978C41.2793 29.8735 40.3839 28.978 39.2793 28.978C38.1747 28.978 37.2793 29.8735 37.2793 30.978C37.2793 32.0826 38.1747 32.978 39.2793 32.978Z" fill="black"/>
<path d="M28.2793 30.978C28.2793 27.119 25.1393 23.978 21.2793 23.978C17.4193 23.978 14.2793 27.119 14.2793 30.978C14.2793 34.837 17.4193 37.978 21.2793 37.978C25.1393 37.978 28.2793 34.838 28.2793 30.978ZM21.2793 35.978C18.5223 35.978 16.2793 33.735 16.2793 30.978C16.2793 28.221 18.5223 25.978 21.2793 25.978C24.0363 25.978 26.2793 28.221 26.2793 30.978C26.2793 33.735 24.0363 35.978 21.2793 35.978Z" fill="black"/>
<path d="M21.2793 32.978C22.3839 32.978 23.2793 32.0826 23.2793 30.978C23.2793 29.8735 22.3839 28.978 21.2793 28.978C20.1747 28.978 19.2793 29.8735 19.2793 30.978C19.2793 32.0826 20.1747 32.978 21.2793 32.978Z" fill="black"/>
<path d="M56.2696 18.842C55.7066 14.76 53.9466 11.237 51.4446 9.174C50.8006 8.643 50.3286 7.809 50.0426 6.695C49.2156 3.486 46.1956 1.244 42.3476 0.981002C40.2066 0.830002 38.3516 1.498 36.3196 2.312C36.2496 2.342 36.1656 2.339 36.0436 2.262C35.6266 1.156 34.6826 0.395002 33.3856 0.120002C30.3756 -0.516998 25.7496 1.429 22.0316 4.811C22.0376 3.92 22.2236 3.124 22.7276 2.873L24.4126 2.03L22.7696 1.107C21.0326 0.129002 16.8456 -0.931998 13.4356 2.051C12.1976 3.133 11.2986 4.647 10.8366 6.428C10.7426 6.792 10.6466 7.183 10.5596 7.568C10.5216 7.734 10.3856 7.784 10.3296 7.797C10.2186 7.821 10.1316 7.796 10.0306 7.675C9.4966 7.023 8.6886 6.705 7.8596 6.819C7.0636 6.931 6.3976 7.44 6.0796 8.181C4.1116 12.748 0.429599 24.372 8.2796 34.32V50.978C8.2796 53.735 10.5226 55.978 13.2796 55.978H16.2796V57.672C16.2796 58.943 17.3136 59.978 18.5846 59.978H41.9746C43.2456 59.978 44.2796 58.944 44.2796 57.672V55.978H47.2796C50.0366 55.978 52.2796 53.735 52.2796 50.978V34.373C53.4506 33.055 57.5036 27.762 56.2696 18.842ZM7.9156 8.972C7.9326 8.934 7.9806 8.822 8.1386 8.8C8.2016 8.791 8.3576 8.788 8.4676 8.924L8.5316 9.002C9.0866 9.663 9.9546 9.949 10.8016 9.741C11.6626 9.532 12.3176 8.867 12.5106 8.007C12.5926 7.645 12.6836 7.276 12.7726 6.931C13.1336 5.541 13.8176 4.374 14.7526 3.558C16.8486 1.724 19.1686 1.962 20.5526 2.363C20.0526 3.311 19.9046 4.642 20.1336 6.275C20.2086 6.813 20.5766 7.254 21.0926 7.424C21.6146 7.597 22.1816 7.46 22.5696 7.067C26.3766 3.202 30.7676 1.609 32.9696 2.077C33.9106 2.276 34.1066 2.797 34.1706 2.968C34.3686 3.493 34.7666 3.909 35.2936 4.141C35.8496 4.386 36.4936 4.397 37.0626 4.17C38.9276 3.423 40.4876 2.862 42.2116 2.978C44.5776 3.139 47.3676 4.331 48.1046 7.194C48.4996 8.727 49.1946 9.913 50.1716 10.718C51.1746 11.545 53.5836 14.018 54.2886 19.116C55.0566 24.671 53.5896 28.633 52.2786 30.927V18.978V17.231L50.7716 18.116C48.3136 19.56 46.1656 20.002 44.3866 19.43C44.1106 19.341 43.8536 19.23 43.6156 19.105C43.5166 19.053 43.4356 18.99 43.3426 18.933C43.2126 18.853 43.0746 18.777 42.9576 18.689C42.8496 18.609 42.7606 18.523 42.6636 18.44C42.5796 18.368 42.4876 18.299 42.4116 18.225C42.3046 18.122 42.2156 18.019 42.1236 17.917C42.0746 17.862 42.0166 17.807 41.9716 17.753C41.8706 17.632 41.7876 17.519 41.7066 17.408C41.6846 17.377 41.6546 17.343 41.6346 17.313C41.5446 17.184 41.4706 17.067 41.4086 16.964C41.4056 16.958 41.3996 16.95 41.3956 16.944C41.2676 16.73 41.2026 16.589 41.1966 16.575L41.1956 16.574L40.9786 16.071L40.4316 15.987C30.8416 14.507 26.1686 18.524 24.8616 19.927C17.8966 19.172 14.8756 17.17 14.8486 17.153L14.1086 16.64L13.5216 17.323C11.9626 19.135 10.1666 20.057 8.9336 20.511L8.2796 20.756V21.453V30.821C3.3766 22.633 5.8426 13.784 7.9156 8.972ZM42.2796 57.673C42.2796 57.842 42.1426 57.979 41.9746 57.979H18.5846C18.4166 57.979 18.2796 57.842 18.2796 57.673V55.979H42.2796V57.673ZM50.2796 50.978C50.2796 52.632 48.9336 53.978 47.2796 53.978H44.2796H16.2796H13.2796C11.6256 53.978 10.2796 52.632 10.2796 50.978V36.79V22.129C11.5106 21.597 13.0466 20.707 14.4756 19.244C15.8836 19.974 19.2826 21.402 25.1836 21.973L25.7486 22.028L26.0846 21.571C26.1226 21.52 29.8846 16.577 39.6306 17.895C40.1466 18.785 41.4276 20.567 43.7436 21.324C45.6946 21.962 47.8866 21.729 50.2786 20.631V36.349L50.2796 50.978Z" fill="black"/>
</g>
<defs>
<clipPath id="clip0_251_563">
<rect width="59.978" height="59.978" fill="white"/>
</clipPath>
</defs>
</svg>
