<svg width="60" height="60" viewBox="0 0 60 60" fill="none" xmlns="http://www.w3.org/2000/svg">
<g clip-path="url(#clip0_251_542)">
<path d="M34.9902 48C27.9182 48 22.9902 46.419 22.9902 45C22.9902 44.447 22.5432 44 21.9902 44C21.4372 44 20.9902 44.447 20.9902 45C20.9902 49.759 32.6522 50 34.9902 50C35.5432 50 35.9902 49.553 35.9902 49C35.9902 48.447 35.5422 48 34.9902 48Z" fill="black"/>
<path d="M29.9902 0C25.4602 0 21.1302 0.942 17.1192 2.8L16.6402 3.022L16.3932 4.505C16.3242 4.412 16.2532 4.318 16.1852 4.226L15.6552 3.514L14.8852 3.955C13.1792 4.932 11.6052 6.06 10.2052 7.309L9.66823 7.787L11.1472 11.241L7.64323 9.927L7.19023 10.494C3.78823 14.75 1.99023 19.766 1.99023 25C1.99023 25.125 1.99723 25.249 2.00523 25.372L2.05223 26.937L3.86023 26.309C3.90723 26.293 3.96723 26.272 4.01823 26.255C4.16223 32.14 5.36423 35.739 6.99123 37.877V50.98C6.99123 53.737 9.23423 55.98 11.9912 55.98H14.9912V57.674C14.9912 58.945 16.0252 59.979 17.2972 59.979H40.6862C41.9572 59.979 42.9922 58.945 42.9922 57.674V55.98H45.9922C48.7492 55.98 50.9922 53.737 50.9922 50.98V39.74C53.5172 38.161 55.7152 34.47 55.9592 26.544C56.5822 26.664 57.0412 26.621 57.4052 26.383C57.7702 26.146 57.9802 25.751 57.9842 25.222C57.9882 25.148 57.9922 25.075 57.9922 25C57.9902 11.215 45.4292 0 29.9902 0ZM8.31024 12.313L14.8312 14.758L12.0772 8.331C13.0162 7.543 14.0342 6.81 15.1152 6.143C15.6962 6.928 16.1822 7.59 16.1822 7.59L17.5852 9.503L18.4362 4.398C22.0492 2.807 25.9332 2 29.9902 2C44.1272 2 55.6642 12.033 55.9822 24.472L55.4572 24.194C54.0232 23.435 52.5252 22.817 50.9892 22.33V18.98V17.233L49.4822 18.118C47.0272 19.562 44.8792 20.003 43.0972 19.432C40.8762 18.718 39.9142 16.6 39.9072 16.583L39.6872 16.075L39.1412 15.991C29.5462 14.513 24.8792 18.528 23.5712 19.931C16.6062 19.176 13.5852 17.174 13.5582 17.157L12.8182 16.644L12.2312 17.327C10.6732 19.138 8.87623 20.059 7.64323 20.515L6.99023 20.757V21.454V23.058C6.75323 23.154 6.51523 23.248 6.28123 23.351C5.54923 23.609 4.69723 23.904 4.00823 24.142C4.18323 19.906 5.66023 15.847 8.31024 12.313ZM47.2002 21.417C47.1202 21.404 47.0402 21.382 46.9602 21.369C46.9982 21.359 47.0372 21.343 47.0752 21.333C47.2972 21.272 47.5222 21.199 47.7492 21.122C47.8392 21.091 47.9292 21.065 48.0202 21.032C48.3402 20.914 48.6632 20.783 48.9902 20.633V21.773C48.9112 21.754 48.8302 21.744 48.7512 21.725C48.2362 21.608 47.7202 21.504 47.2002 21.417ZM40.5902 21.085C40.2172 21.11 39.8452 21.144 39.4742 21.184C39.3032 21.202 39.1312 21.219 38.9602 21.24C38.5872 21.287 38.2162 21.344 37.8452 21.406C37.6802 21.433 37.5152 21.457 37.3512 21.487C36.9512 21.561 36.5532 21.648 36.1572 21.739C36.0282 21.769 35.8982 21.793 35.7692 21.824C34.7192 22.081 33.6852 22.4 32.6742 22.778C32.5332 22.831 32.3952 22.891 32.2552 22.946C31.8932 23.088 31.5332 23.234 31.1782 23.391C31.0112 23.465 30.8472 23.546 30.6812 23.624C30.4512 23.732 30.2172 23.833 29.9902 23.948C29.7232 23.813 29.4512 23.692 29.1812 23.566C29.0752 23.517 28.9702 23.464 28.8632 23.416C27.4662 22.787 26.0272 22.278 24.5592 21.892L24.7962 21.57C24.8332 21.519 28.5932 16.572 38.3422 17.894C38.4022 17.998 38.4742 18.114 38.5552 18.239C38.5842 18.283 38.6192 18.331 38.6512 18.378C38.7092 18.464 38.7692 18.55 38.8372 18.642C38.8802 18.701 38.9292 18.76 38.9762 18.821C39.0442 18.908 39.1132 18.994 39.1892 19.083C39.2452 19.149 39.3052 19.214 39.3652 19.281C39.4452 19.369 39.5282 19.456 39.6162 19.545C39.6832 19.613 39.7522 19.679 39.8242 19.747C39.9192 19.835 40.0192 19.922 40.1222 20.008C40.2002 20.073 40.2762 20.138 40.3592 20.202C40.4732 20.29 40.5952 20.374 40.7192 20.458C40.8032 20.515 40.8832 20.573 40.9712 20.627C41.1232 20.721 41.2872 20.808 41.4532 20.893C41.5242 20.93 41.5892 20.97 41.6632 21.005C41.6732 21.01 41.6822 21.015 41.6922 21.02C41.4932 21.026 41.2952 21.043 41.0972 21.053C40.9272 21.066 40.7592 21.074 40.5902 21.085ZM12.2902 21.501C11.8062 21.593 11.3222 21.689 10.8422 21.807C10.2842 21.942 9.73023 22.095 9.18123 22.264C9.11823 22.284 9.05323 22.296 8.99123 22.316V22.13C10.2222 21.598 11.7592 20.708 13.1872 19.246C13.2852 19.297 13.3942 19.351 13.5112 19.408C13.5462 19.425 13.5852 19.443 13.6212 19.46C13.7082 19.502 13.7992 19.544 13.8972 19.588C13.9462 19.61 13.9982 19.633 14.0492 19.656C14.1432 19.698 14.2422 19.74 14.3452 19.783C14.4052 19.808 14.4652 19.834 14.5282 19.859C14.6402 19.905 14.7592 19.952 14.8802 19.999C14.9402 20.022 14.9972 20.045 15.0602 20.069C15.2442 20.139 15.4372 20.209 15.6412 20.28C15.6852 20.295 15.7332 20.311 15.7782 20.326C15.9432 20.382 16.1132 20.439 16.2912 20.496C16.3792 20.524 16.4722 20.552 16.5642 20.58C16.7092 20.625 16.8572 20.669 17.0112 20.714C17.1172 20.744 17.2252 20.775 17.3342 20.805C17.4862 20.847 17.6422 20.888 17.8012 20.93C17.8762 20.95 17.9452 20.97 18.0232 20.989C16.2022 20.955 14.3792 21.123 12.5742 21.447C12.4782 21.464 12.3842 21.483 12.2902 21.501ZM7.02823 25.208C7.57423 25.015 8.05423 24.843 8.34324 24.734L8.99023 24.49V24.435C9.35423 24.309 9.72023 24.187 10.0892 24.078C10.1392 24.063 10.1892 24.049 10.2402 24.035C15.4472 22.531 21.1002 22.688 26.2142 24.508C26.2302 24.514 26.2472 24.52 26.2632 24.526C26.6662 24.671 27.0652 24.828 27.4612 24.994C27.5822 25.045 27.7022 25.097 27.8222 25.149C28.1192 25.278 28.4132 25.415 28.7052 25.556C28.7952 25.6 28.8852 25.645 28.9752 25.69C28.9742 25.721 28.9732 25.748 28.9722 25.779C28.9702 25.831 28.9662 25.886 28.9632 25.942C28.9582 26.039 28.9512 26.14 28.9432 26.245C28.9382 26.31 28.9332 26.377 28.9272 26.445C28.9182 26.551 28.9072 26.662 28.8952 26.774C28.8872 26.849 28.8792 26.924 28.8702 27.001C28.8562 27.121 28.8392 27.245 28.8222 27.371C28.8112 27.448 28.8022 27.524 28.7902 27.604C28.7692 27.743 28.7442 27.888 28.7192 28.033C28.7062 28.106 28.6952 28.178 28.6812 28.252C28.6442 28.448 28.6022 28.649 28.5562 28.854C28.5502 28.881 28.5452 28.907 28.5392 28.935C28.4862 29.166 28.4262 29.403 28.3602 29.642C28.3402 29.715 28.3152 29.791 28.2932 29.865C28.2442 30.032 28.1952 30.198 28.1392 30.367C28.1072 30.463 28.0712 30.561 28.0372 30.657C27.9842 30.807 27.9312 30.957 27.8732 31.108C27.8322 31.213 27.7882 31.318 27.7442 31.423C27.6842 31.567 27.6222 31.712 27.5562 31.856C27.5072 31.965 27.4542 32.073 27.4012 32.181C27.3322 32.322 27.2602 32.462 27.1852 32.603C27.1262 32.713 27.0662 32.822 27.0042 32.932C26.9252 33.07 26.8402 33.208 26.7552 33.345C26.6882 33.452 26.6212 33.56 26.5492 33.666C26.4562 33.805 26.3562 33.941 26.2552 34.077C26.1812 34.178 26.1092 34.28 26.0302 34.379C25.9172 34.522 25.7962 34.66 25.6752 34.799C25.5982 34.887 25.5252 34.978 25.4442 35.065C25.2722 35.249 25.0892 35.428 24.9012 35.603C24.8642 35.638 24.8312 35.675 24.7932 35.709C21.9352 38.297 17.7092 39.333 12.2302 38.781C12.1972 38.778 12.1682 38.767 12.1342 38.763C11.8432 38.729 11.5622 38.675 11.2932 38.598C11.1772 38.565 11.0722 38.515 10.9612 38.474C10.7802 38.408 10.6002 38.34 10.4292 38.253C10.3242 38.2 10.2272 38.135 10.1272 38.075C9.95023 37.967 9.77623 37.853 9.61023 37.721C9.54023 37.666 9.47123 37.607 9.40323 37.548C9.19223 37.361 8.98724 37.159 8.79323 36.929C6.66123 34.425 6.04423 29.829 5.99223 25.686C6.33423 25.516 6.68123 25.362 7.02823 25.208ZM40.9902 57.675C40.9902 57.843 40.8532 57.98 40.6842 57.98H17.2952C17.1262 57.98 16.9892 57.843 16.9892 57.675V55.98H40.9892V57.675H40.9902ZM48.9902 40.589V50.98C48.9902 52.634 47.6442 53.98 45.9902 53.98H42.9902L14.9902 53.979L11.9902 53.98C10.3362 53.98 8.99023 52.634 8.99023 50.98V39.743C9.00223 39.751 9.01523 39.756 9.02724 39.764C9.21124 39.877 9.39623 39.979 9.58323 40.071C9.64223 40.1 9.69923 40.131 9.75923 40.158C9.93023 40.236 10.1012 40.304 10.2722 40.366C10.3522 40.395 10.4312 40.427 10.5132 40.453C10.6802 40.506 10.8452 40.55 11.0122 40.59C11.1002 40.611 11.1862 40.637 11.2762 40.655C11.4972 40.7 11.7152 40.733 11.9322 40.757C11.9662 40.761 11.9992 40.769 12.0342 40.773C12.0612 40.776 12.0862 40.775 12.1122 40.778C12.7602 40.841 13.3882 40.878 14.0062 40.9C14.1622 40.905 14.3172 40.91 14.4722 40.912C14.6392 40.915 14.8122 40.925 14.9762 40.925C15.2972 40.925 15.6022 40.904 15.9142 40.893C16.0982 40.886 16.2872 40.885 16.4692 40.874C17.7192 40.798 18.8972 40.624 20.0002 40.353C20.1662 40.312 20.3232 40.26 20.4862 40.215C20.8612 40.111 21.2312 39.999 21.5882 39.871C21.7762 39.804 21.9592 39.73 22.1422 39.656C22.4642 39.526 22.7772 39.386 23.0832 39.237C23.2592 39.151 23.4352 39.064 23.6052 38.971C23.9182 38.801 24.2192 38.615 24.5152 38.422C24.6542 38.331 24.7972 38.247 24.9322 38.152C25.3522 37.855 25.7582 37.539 26.1392 37.194C26.1822 37.155 26.2182 37.114 26.2602 37.075C26.4722 36.878 26.6782 36.679 26.8722 36.473C26.9682 36.372 27.0542 36.267 27.1462 36.163C27.2782 36.013 27.4122 35.864 27.5352 35.712C27.6282 35.597 27.7132 35.481 27.8012 35.365C27.9112 35.219 28.0222 35.073 28.1252 34.924C28.2092 34.803 28.2872 34.682 28.3662 34.56C28.4622 34.412 28.5562 34.264 28.6452 34.115C28.7182 33.992 28.7882 33.87 28.8572 33.746C28.9412 33.594 29.0232 33.443 29.1012 33.291C29.1642 33.168 29.2252 33.046 29.2842 32.924C29.3582 32.768 29.4282 32.613 29.4962 32.458C29.5482 32.339 29.6012 32.221 29.6492 32.102C29.7152 31.939 29.7762 31.778 29.8372 31.616C29.8782 31.505 29.9222 31.393 29.9602 31.283C29.9702 31.255 29.9822 31.226 29.9912 31.199C30.0012 31.227 30.0122 31.255 30.0222 31.283C30.0612 31.394 30.1042 31.505 30.1452 31.616C30.2052 31.778 30.2662 31.939 30.3332 32.102C30.3822 32.221 30.4342 32.339 30.4862 32.458C30.5542 32.614 30.6242 32.769 30.6982 32.924C30.7572 33.047 30.8182 33.169 30.8812 33.291C30.9592 33.443 31.0402 33.595 31.1252 33.746C31.1942 33.869 31.2642 33.992 31.3372 34.115C31.4262 34.264 31.5202 34.412 31.6162 34.56C31.6952 34.682 31.7732 34.803 31.8572 34.924C31.9602 35.072 32.0702 35.218 32.1812 35.365C32.2692 35.481 32.3542 35.598 32.4472 35.712C32.5712 35.865 32.7042 36.014 32.8362 36.163C32.9272 36.266 33.0142 36.371 33.1102 36.473C33.3042 36.678 33.5102 36.878 33.7222 37.075C33.7642 37.114 33.8002 37.156 33.8432 37.194C34.2252 37.54 34.6322 37.856 35.0532 38.153C35.1852 38.247 35.3262 38.329 35.4622 38.418C35.7592 38.612 36.0632 38.8 36.3782 38.971C36.5492 39.064 36.7242 39.15 36.9002 39.237C37.2042 39.386 37.5162 39.525 37.8362 39.654C38.0222 39.729 38.2082 39.804 38.3992 39.873C38.7462 39.997 39.1062 40.106 39.4712 40.208C39.6452 40.257 39.8142 40.312 39.9922 40.355C40.5382 40.489 41.0982 40.605 41.6812 40.691C41.7092 40.695 41.7402 40.696 41.7682 40.701C42.3262 40.781 42.9032 40.837 43.4952 40.873C43.6982 40.885 43.9102 40.887 44.1172 40.894C44.4132 40.904 44.7022 40.925 45.0062 40.925C45.1642 40.925 45.3282 40.915 45.4882 40.912C45.6562 40.909 45.8252 40.905 45.9952 40.899C46.6062 40.877 47.2272 40.84 47.8672 40.778C47.8952 40.775 47.9202 40.776 47.9482 40.773C47.9612 40.772 47.9742 40.768 47.9862 40.766C48.2952 40.734 48.6082 40.675 48.9242 40.601C48.9452 40.595 48.9682 40.594 48.9902 40.589ZM49.5272 38.266C49.2502 38.405 48.9682 38.516 48.6792 38.601C48.6752 38.602 48.6722 38.604 48.6692 38.605C48.4162 38.679 48.1522 38.722 47.8832 38.757C47.8362 38.763 47.7952 38.777 47.7482 38.782C42.2772 39.335 38.0452 38.298 35.1852 35.71C35.1472 35.676 35.1142 35.638 35.0772 35.604C34.8892 35.428 34.7052 35.25 34.5342 35.066C34.4532 34.979 34.3802 34.889 34.3032 34.8C34.1822 34.661 34.0602 34.522 33.9482 34.38C33.8702 34.281 33.7972 34.179 33.7232 34.078C33.6232 33.942 33.5232 33.806 33.4292 33.667C33.3582 33.561 33.2912 33.454 33.2242 33.346C33.1382 33.209 33.0542 33.071 32.9742 32.932C32.9122 32.824 32.8522 32.715 32.7942 32.606C32.7192 32.465 32.6462 32.324 32.5772 32.183C32.5242 32.075 32.4722 31.966 32.4232 31.858C32.3572 31.714 32.2952 31.569 32.2352 31.425C32.1912 31.32 32.1472 31.215 32.1062 31.11C32.0482 30.959 31.9942 30.809 31.9422 30.659C31.9082 30.562 31.8722 30.465 31.8402 30.369C31.7852 30.2 31.7352 30.033 31.6862 29.867C31.6642 29.793 31.6402 29.717 31.6192 29.644C31.5532 29.405 31.4932 29.168 31.4402 28.937C31.4342 28.909 31.4292 28.884 31.4232 28.856C31.3772 28.652 31.3352 28.45 31.2982 28.254C31.2842 28.179 31.2732 28.108 31.2602 28.035C31.2352 27.89 31.2102 27.745 31.1892 27.606C31.1772 27.527 31.1672 27.452 31.1572 27.375C31.1402 27.248 31.1232 27.121 31.1092 27C31.1002 26.925 31.0932 26.852 31.0852 26.779C31.0732 26.665 31.0622 26.552 31.0532 26.446C31.0472 26.378 31.0422 26.311 31.0372 26.246C31.0292 26.141 31.0222 26.039 31.0172 25.943C31.0142 25.888 31.0112 25.832 31.0082 25.78C31.0072 25.748 31.0062 25.72 31.0052 25.689C31.0772 25.653 31.1482 25.617 31.2212 25.582C31.5112 25.441 31.8042 25.307 32.0992 25.177C32.2302 25.12 32.3612 25.06 32.4932 25.005C32.8542 24.854 33.2192 24.713 33.5862 24.579C33.6512 24.555 33.7162 24.528 33.7812 24.505C34.2222 24.348 34.6682 24.204 35.1172 24.072C35.2052 24.046 35.2952 24.024 35.3842 23.999C35.7412 23.898 36.1002 23.803 36.4612 23.718C36.5972 23.686 36.7332 23.657 36.8692 23.627C37.1922 23.556 37.5162 23.491 37.8412 23.432C37.9822 23.407 38.1222 23.382 38.2632 23.359C38.6042 23.304 38.9462 23.256 39.2892 23.214C39.4062 23.2 39.5232 23.183 39.6412 23.17C40.0862 23.122 40.5332 23.083 40.9802 23.057C40.9932 23.056 41.0052 23.055 41.0182 23.054C41.4972 23.027 41.9772 23.014 42.4572 23.014C42.5282 23.014 42.5992 23.017 42.6702 23.018C43.0592 23.021 43.4472 23.031 43.8352 23.051C43.9752 23.058 44.1142 23.069 44.2542 23.078C44.5722 23.099 44.8902 23.126 45.2072 23.159C45.3742 23.176 45.5412 23.195 45.7072 23.215C45.9932 23.25 46.2772 23.292 46.5622 23.337C46.7472 23.366 46.9332 23.393 47.1172 23.427C47.3692 23.472 47.6192 23.526 47.8692 23.578C48.0802 23.622 48.2912 23.662 48.5012 23.712C48.5202 23.717 48.5392 23.722 48.5582 23.727C48.7032 23.762 48.8462 23.804 48.9902 23.841V23.897L49.7132 24.106C50.1902 24.244 51.0662 24.632 51.9932 25.045C52.7552 25.383 53.4092 25.667 53.9812 25.899C53.8942 30.913 52.9722 36.53 49.5272 38.266Z" fill="black"/>
<path d="M40.5415 33.285L39.2835 34.543C38.8925 34.934 38.8925 35.566 39.2835 35.957C39.4785 36.152 39.7345 36.25 39.9905 36.25C40.2465 36.25 40.5025 36.152 40.6975 35.957L41.9555 34.699C42.3465 34.308 42.3465 33.676 41.9555 33.285C41.5645 32.894 40.9315 32.895 40.5415 33.285Z" fill="#CA5331"/>
<path d="M46.1974 30.457C46.5884 30.066 46.5884 29.434 46.1974 29.043C45.8064 28.652 45.1744 28.652 44.7834 29.043L42.6624 31.164C42.2714 31.555 42.2714 32.187 42.6624 32.578C42.8574 32.773 43.1134 32.871 43.3694 32.871C43.6254 32.871 43.8814 32.773 44.0764 32.578L46.1974 30.457Z" fill="#CA5331"/>
<path d="M50.2834 29.043L48.1624 31.164C47.7714 31.555 47.7714 32.187 48.1624 32.578C48.3574 32.773 48.6134 32.871 48.8694 32.871C49.1254 32.871 49.3814 32.773 49.5764 32.578L51.6974 30.457C52.0884 30.066 52.0884 29.434 51.6974 29.043C51.3064 28.652 50.6734 28.652 50.2834 29.043Z" fill="#CA5331"/>
<path d="M46.0412 33.285L43.9192 35.407C43.5282 35.798 43.5282 36.43 43.9192 36.821C44.1142 37.016 44.3702 37.114 44.6262 37.114C44.8822 37.114 45.1382 37.016 45.3332 36.821L47.4552 34.699C47.8462 34.308 47.8462 33.676 47.4552 33.285C47.0642 32.894 46.4312 32.895 46.0412 33.285Z" fill="#CA5331"/>
<path d="M12.3694 28.871C12.6254 28.871 12.8814 28.773 13.0764 28.578L15.1974 26.457C15.5884 26.066 15.5884 25.434 15.1974 25.043C14.8064 24.652 14.1744 24.652 13.7834 25.043L11.6624 27.164C11.2714 27.555 11.2714 28.187 11.6624 28.578C11.8574 28.773 12.1134 28.871 12.3694 28.871Z" fill="#CA5331"/>
<path d="M8.99048 32.25C9.24648 32.25 9.50248 32.152 9.69748 31.957L10.9555 30.699C11.3465 30.308 11.3465 29.676 10.9555 29.285C10.5645 28.894 9.93248 28.894 9.54148 29.285L8.28348 30.543C7.89248 30.934 7.89248 31.566 8.28348 31.957C8.47848 32.152 8.73448 32.25 8.99048 32.25Z" fill="#CA5331"/>
<path d="M12.9182 31.407C12.5272 31.798 12.5272 32.43 12.9182 32.821C13.1132 33.016 13.3692 33.114 13.6252 33.114C13.8812 33.114 14.1372 33.016 14.3322 32.821L16.4543 30.699C16.8453 30.308 16.8453 29.676 16.4543 29.285C16.0633 28.894 15.4312 28.894 15.0402 29.285L12.9182 31.407Z" fill="#CA5331"/>
<path d="M17.8694 28.871C18.1254 28.871 18.3814 28.773 18.5764 28.578L20.6974 26.457C21.0884 26.066 21.0884 25.434 20.6974 25.043C20.3064 24.652 19.6744 24.652 19.2834 25.043L17.1624 27.164C16.7714 27.555 16.7714 28.187 17.1624 28.578C17.3574 28.773 17.6134 28.871 17.8694 28.871Z" fill="#CA5331"/>
</g>
<defs>
<clipPath id="clip0_251_542">
<rect width="59.979" height="59.979" fill="white"/>
</clipPath>
</defs>
</svg>
