<svg width="60" height="60" viewBox="0 0 60 60" fill="none" xmlns="http://www.w3.org/2000/svg">
<g clip-path="url(#clip0_251_523)">
<path d="M21.67 35.636C21.902 35.636 22.135 35.555 22.323 35.394L26.178 32.073C27.089 31.276 27.714 30.264 27.987 29.148C28.168 28.408 28.131 27.912 28.1 27.708C27.887 25.591 26.248 24 24.271 24C23.293 24 22.375 24.371 21.681 25.006C21.001 24.366 20.107 24 19.135 24C17.158 24 15.518 25.592 15.306 27.708C15.275 27.912 15.238 28.407 15.419 29.146C15.692 30.263 16.317 31.275 17.227 32.07L21.012 35.387C21.199 35.553 21.435 35.636 21.67 35.636ZM17.361 28.672C17.262 28.266 17.281 28.03 17.279 28.03C17.286 27.996 17.291 27.963 17.294 27.928C17.382 26.97 18.042 26 19.135 26C19.847 26 20.453 26.412 20.754 27.103C20.913 27.467 21.273 27.703 21.671 27.703C22.069 27.703 22.428 27.468 22.588 27.103C22.879 26.433 23.541 26 24.271 26C25.363 26 26.024 26.971 26.122 27.999C26.122 27.999 26.15 28.24 26.044 28.672C25.87 29.387 25.461 30.042 24.867 30.562L21.676 33.311L18.544 30.566C17.945 30.042 17.535 29.388 17.361 28.672Z" fill="#CA5331"/>
<path d="M42.271 24C41.293 24 40.375 24.371 39.681 25.006C39.001 24.366 38.107 24 37.135 24C35.158 24 33.518 25.592 33.306 27.708C33.275 27.912 33.238 28.407 33.419 29.146C33.692 30.263 34.317 31.275 35.227 32.07L39.012 35.387C39.2 35.552 39.436 35.635 39.671 35.635C39.903 35.635 40.136 35.554 40.324 35.393L44.179 32.072C45.09 31.275 45.715 30.263 45.988 29.147C46.169 28.407 46.132 27.911 46.101 27.707C45.887 25.591 44.248 24 42.271 24ZM44.044 28.672C43.87 29.387 43.461 30.042 42.867 30.562L39.676 33.311L36.544 30.566C35.945 30.043 35.536 29.388 35.361 28.672C35.262 28.266 35.281 28.03 35.279 28.03C35.286 27.996 35.291 27.963 35.294 27.928C35.382 26.97 36.042 26 37.135 26C37.847 26 38.453 26.412 38.754 27.103C38.913 27.467 39.273 27.703 39.671 27.703C40.069 27.703 40.428 27.468 40.588 27.103C40.879 26.433 41.541 26 42.271 26C43.363 26 44.024 26.971 44.122 27.999C44.122 27.999 44.15 28.24 44.044 28.672Z" fill="#CA5331"/>
<path d="M40.2793 39H21.2793C20.7273 39 20.2793 39.447 20.2793 40C20.2793 45.79 24.9893 50.5 30.7793 50.5C36.5693 50.5 41.2793 45.79 41.2793 40C41.2793 39.447 40.8313 39 40.2793 39ZM30.7793 48.5C26.4303 48.5 22.8343 45.218 22.3383 41H39.2213C38.7243 45.218 35.1283 48.5 30.7793 48.5Z" fill="black"/>
<path d="M56.2706 18.843C55.7066 14.762 53.9476 11.238 51.4446 9.17502C50.8006 8.64402 50.3286 7.81002 50.0416 6.69602C49.2156 3.48802 46.1956 1.24502 42.3476 0.981023C40.2116 0.837023 38.3546 1.49802 36.3196 2.31202C36.2496 2.34002 36.1656 2.34002 36.0436 2.26202C35.6266 1.15602 34.6826 0.395023 33.3856 0.120023C30.3786 -0.520977 25.7506 1.43002 22.0316 4.81102C22.0376 3.92102 22.2236 3.12402 22.7276 2.87302L24.4136 2.03002L22.7696 1.10702C21.0326 0.130023 16.8466 -0.929977 13.4356 2.05202C12.1976 3.13602 11.2986 4.65002 10.8366 6.42902C10.7426 6.79302 10.6466 7.18402 10.5596 7.56902C10.5216 7.73502 10.3856 7.78602 10.3286 7.79902C10.2196 7.82302 10.1316 7.79802 10.0306 7.67702C9.4956 7.02502 8.6806 6.70602 7.8596 6.82002C7.0636 6.93302 6.3986 7.44102 6.0796 8.18202C4.1116 12.75 0.429599 24.374 8.2796 34.321V50.979C8.2796 53.736 10.5226 55.979 13.2796 55.979H16.2796V57.674C16.2796 58.945 17.3136 59.979 18.5846 59.979H41.9746C43.2456 59.979 44.2796 58.945 44.2796 57.674V55.979H47.2796C50.0366 55.979 52.2796 53.736 52.2796 50.979V34.374C53.4516 33.054 57.5026 27.762 56.2706 18.843ZM7.9166 8.97302C7.9326 8.93602 7.9806 8.82402 8.1386 8.80102C8.1866 8.79302 8.3536 8.78602 8.5326 9.00402C9.0876 9.66402 9.9596 9.94802 10.8016 9.74302C11.6636 9.53402 12.3186 8.86902 12.5116 8.00802C12.5936 7.64602 12.6846 7.27702 12.7736 6.93202C13.1336 5.54302 13.8186 4.37602 14.7526 3.55902C16.8496 1.72502 19.1696 1.96402 20.5536 2.36402C20.0536 3.31202 19.9056 4.64302 20.1346 6.27502C20.2096 6.81402 20.5766 7.25502 21.0926 7.42502C21.6166 7.59902 22.1826 7.46102 22.5706 7.06802C26.3786 3.20202 30.7696 1.61402 32.9706 2.07802C33.9116 2.27702 34.1076 2.79802 34.1716 2.96902C34.3696 3.49302 34.7676 3.91002 35.2936 4.14302C35.8506 4.38702 36.4946 4.39802 37.0636 4.17102C38.9316 3.42402 40.4996 2.85602 42.2126 2.97902C44.5786 3.14002 47.3696 4.33302 48.1066 7.19602C48.5016 8.72902 49.1966 9.91402 50.1736 10.719C51.1766 11.546 53.5856 14.02 54.2906 19.117C55.0586 24.672 53.5916 28.634 52.2816 30.928V18.979V17.232L50.7746 18.117C48.3176 19.56 46.1696 20.002 44.3896 19.431C44.1136 19.342 43.8566 19.231 43.6186 19.106C43.5266 19.058 43.4506 18.999 43.3646 18.946C43.2266 18.862 43.0836 18.782 42.9606 18.69C42.8696 18.622 42.7946 18.549 42.7106 18.478C42.6106 18.394 42.5026 18.312 42.4136 18.225C42.3256 18.141 42.2546 18.057 42.1776 17.973C42.1096 17.899 42.0336 17.825 41.9726 17.753C41.8916 17.657 41.8286 17.568 41.7606 17.477C41.7196 17.423 41.6706 17.364 41.6346 17.313C41.5616 17.209 41.5066 17.12 41.4526 17.032C41.4356 17.004 41.4116 16.969 41.3956 16.944C41.2696 16.732 41.2046 16.592 41.1986 16.578L41.1976 16.577L40.9806 16.074L40.4336 15.99C30.8456 14.513 26.1716 18.528 24.8636 19.93C17.8986 19.175 14.8776 17.173 14.8506 17.156L14.1106 16.643L13.5236 17.326C11.9646 19.138 10.1686 20.06 8.9356 20.514L8.2796 20.757V21.454V30.822C3.3776 22.634 5.8426 13.785 7.9166 8.97302ZM42.2796 57.675C42.2796 57.843 42.1426 57.98 41.9746 57.98H18.5846C18.4166 57.98 18.2796 57.843 18.2796 57.675V55.98H42.2796V57.675ZM50.2796 50.979C50.2796 52.633 48.9336 53.979 47.2796 53.979H44.2796H16.2796H13.2796C11.6256 53.979 10.2796 52.633 10.2796 50.979V36.791V22.13C11.5106 21.598 13.0466 20.708 14.4756 19.245C15.8836 19.975 19.2826 21.403 25.1836 21.974L25.7486 22.029L26.0846 21.572C26.1226 21.521 29.8766 16.576 39.6306 17.896C40.1466 18.786 41.4276 20.568 43.7436 21.325C45.6946 21.964 47.8866 21.729 50.2786 20.632V36.35L50.2796 50.979Z" fill="black"/>
</g>
<defs>
<clipPath id="clip0_251_523">
<rect width="59.979" height="59.979" fill="white"/>
</clipPath>
</defs>
</svg>
