<svg width="134" height="33" viewBox="0 0 134 33" fill="none" xmlns="http://www.w3.org/2000/svg">
<path d="M12.232 31.68C10.312 31.68 8.648 31.6 7.24 31.44C5.832 31.28 4.656 30.968 3.712 30.504C2.768 30.04 2.032 29.36 1.504 28.464C0.976 27.568 0.624 26.376 0.448 24.888C0.384 24.2 0.32 23.44 0.256 22.608C0.208 21.776 0.16 20.912 0.112 20.016C0.0800001 19.104 0.0560001 18.192 0.04 17.28C0.0240001 16.368 0.0160002 15.488 0.0160002 14.64C0.0160002 13.792 0.0320001 13.016 0.0640001 12.312C0.112 9.528 0.6 7.344 1.528 5.76C2.472 4.16 3.896 3.024 5.8 2.352C7.72 1.68 10.184 1.344 13.192 1.344C14.728 1.344 16.264 1.472 17.8 1.728C19.352 1.968 20.768 2.376 22.048 2.952C23.328 3.528 24.36 4.304 25.144 5.28C25.928 6.24 26.32 7.456 26.32 8.928C26.32 9.92 26.16 10.744 25.84 11.4C25.52 12.056 25.12 12.576 24.64 12.96C24.176 13.344 23.696 13.648 23.2 13.872C22.64 14.128 22.168 14.344 21.784 14.52C21.416 14.696 21.232 14.84 21.232 14.952C21.232 15.064 21.432 15.176 21.832 15.288C22.248 15.384 22.784 15.528 23.44 15.72C24.544 16.056 25.512 16.536 26.344 17.16C27.192 17.784 27.848 18.544 28.312 19.44C28.792 20.32 29.032 21.344 29.032 22.512C29.032 23.584 28.784 24.616 28.288 25.608C27.808 26.584 27.184 27.408 26.416 28.08C25.776 28.656 24.92 29.168 23.848 29.616C22.792 30.064 21.608 30.44 20.296 30.744C18.984 31.048 17.632 31.28 16.24 31.44C14.864 31.6 13.528 31.68 12.232 31.68ZM12.472 24.768C13.384 24.768 14.256 24.704 15.088 24.576C15.936 24.448 16.688 24.248 17.344 23.976C18.016 23.704 18.544 23.36 18.928 22.944C19.328 22.528 19.528 22.032 19.528 21.456C19.528 21.024 19.36 20.664 19.024 20.376C18.704 20.072 18.272 19.832 17.728 19.656C17.2 19.464 16.616 19.32 15.976 19.224C15.336 19.128 14.688 19.064 14.032 19.032C13.392 18.984 12.816 18.96 12.304 18.96C12.064 18.96 11.808 19 11.536 19.08C11.28 19.144 11.032 19.264 10.792 19.44C10.552 19.616 10.36 19.888 10.216 20.256C10.072 20.608 10 21.072 10 21.648C10 22.128 10.024 22.56 10.072 22.944C10.136 23.328 10.248 23.656 10.408 23.928C10.584 24.2 10.832 24.408 11.152 24.552C11.488 24.696 11.928 24.768 12.472 24.768ZM10.792 12.672C11.432 12.672 12.04 12.648 12.616 12.6C13.192 12.536 13.736 12.448 14.248 12.336C14.76 12.224 15.256 12.096 15.736 11.952C16.424 11.728 16.968 11.424 17.368 11.04C17.784 10.64 17.992 10.112 17.992 9.456C17.992 9.008 17.832 8.616 17.512 8.28C17.208 7.928 16.8 7.632 16.288 7.392C15.792 7.152 15.24 6.968 14.632 6.84C14.04 6.712 13.456 6.648 12.88 6.648C12.416 6.648 11.976 6.696 11.56 6.792C11.16 6.872 10.808 7.008 10.504 7.2C10.216 7.392 10 7.624 9.856 7.896C9.792 8.024 9.736 8.2 9.688 8.424C9.64 8.648 9.6 8.888 9.568 9.144C9.536 9.4 9.512 9.664 9.496 9.936C9.48 10.192 9.472 10.432 9.472 10.656C9.472 11.312 9.568 11.816 9.76 12.168C9.952 12.504 10.296 12.672 10.792 12.672ZM38.7813 31.344C36.0613 30.848 34.1813 29.744 33.1413 28.032C32.1013 26.304 31.5813 23.976 31.5813 21.048C31.5813 20.36 31.6053 19.592 31.6533 18.744C31.7173 17.88 31.7893 16.992 31.8693 16.08C31.9493 15.168 32.0453 14.264 32.1573 13.368C32.2693 12.456 32.3893 11.608 32.5173 10.824C32.6453 10.04 32.7653 9.352 32.8773 8.76C33.4053 6.28 34.2213 4.344 35.3253 2.952C36.4293 1.544 37.8933 0.839999 39.7173 0.839999C40.9653 0.839999 41.8853 1.08 42.4773 1.56C43.0853 2.04 43.4773 2.712 43.6533 3.576C43.8453 4.424 43.9413 5.416 43.9413 6.552C43.9413 6.984 43.9333 7.448 43.9173 7.944C43.9173 8.424 43.9093 8.928 43.8932 9.456C43.8932 9.984 43.8853 10.52 43.8693 11.064C43.8693 11.608 43.8693 12.144 43.8693 12.672C43.8853 13.2 43.8932 13.72 43.8932 14.232C43.9093 14.728 43.9413 15.208 43.9893 15.672C44.0373 16.488 44.1333 17.192 44.2773 17.784C44.4373 18.36 44.6693 18.84 44.9733 19.224C45.2773 19.608 45.6853 19.896 46.1973 20.088C46.7093 20.28 47.3573 20.392 48.1413 20.424C49.4853 20.552 50.7413 20.696 51.9093 20.856C53.0933 21 54.0533 21.136 54.7893 21.264C55.3813 21.296 55.9573 21.376 56.5173 21.504C57.0773 21.632 57.5333 21.816 57.8853 22.056C58.2213 22.312 58.4693 22.64 58.6293 23.04C58.8053 23.44 58.8933 23.968 58.8933 24.624C58.8933 25.744 58.5973 26.696 58.0052 27.48C57.4293 28.264 56.6693 28.92 55.7253 29.448C54.7973 29.96 53.7813 30.384 52.6773 30.72C51.6533 31.008 50.4133 31.24 48.9573 31.416C47.5013 31.592 46.0453 31.68 44.5893 31.68C43.9013 31.68 43.2053 31.672 42.5013 31.656C41.7973 31.656 41.1253 31.624 40.4853 31.56C39.8453 31.512 39.2773 31.44 38.7813 31.344ZM77.6283 32.544C75.3243 32.544 73.1883 32.224 71.2203 31.584C69.2523 30.944 67.5403 30.008 66.0843 28.776C64.6283 27.528 63.4923 26.016 62.6763 24.24C61.8763 22.464 61.4763 20.44 61.4763 18.168C61.4763 15.96 61.8043 13.968 62.4603 12.192C63.1323 10.4 64.0683 8.832 65.2683 7.488C66.4683 6.144 67.8603 5.016 69.4443 4.104C71.0443 3.192 72.7803 2.512 74.6523 2.064C76.5243 1.6 78.4603 1.368 80.4603 1.368C82.9083 1.368 85.1963 1.704 87.3243 2.376C89.4683 3.048 91.3563 4.032 92.9883 5.328C94.6203 6.608 95.8923 8.16 96.8043 9.984C97.7323 11.808 98.1963 13.872 98.1963 16.176C98.1963 18.72 97.6443 21.008 96.5403 23.04C95.4363 25.056 93.9163 26.776 91.9803 28.2C90.0603 29.608 87.8683 30.68 85.4043 31.416C82.9403 32.168 80.3483 32.544 77.6283 32.544ZM79.6683 21.624C81.4123 21.624 82.8043 21.344 83.8443 20.784C84.9003 20.208 85.6683 19.464 86.1483 18.552C86.6283 17.64 86.8683 16.688 86.8683 15.696C86.8683 14.752 86.7003 13.896 86.3643 13.128C86.0283 12.344 85.5643 11.68 84.9723 11.136C84.3803 10.576 83.6843 10.144 82.8843 9.84C82.1003 9.536 81.2523 9.384 80.3403 9.384C79.4763 9.384 78.6443 9.52 77.8443 9.792C77.0443 10.048 76.3323 10.424 75.7083 10.92C75.0843 11.4 74.5883 11.992 74.2203 12.696C73.8523 13.384 73.6683 14.152 73.6683 15C73.6683 15.928 73.8123 16.792 74.1003 17.592C74.4043 18.392 74.8203 19.096 75.3483 19.704C75.8923 20.296 76.5323 20.768 77.2683 21.12C78.0043 21.456 78.8043 21.624 79.6683 21.624ZM105.051 31.152C104.043 31.152 103.147 30.96 102.363 30.576C101.595 30.208 100.995 29.672 100.563 28.968C100.131 28.264 99.9153 27.424 99.9153 26.448C99.9153 25.424 100.075 24.56 100.395 23.856C100.715 23.136 101.187 22.48 101.811 21.888C102.099 21.584 102.459 21.248 102.891 20.88C103.339 20.496 103.827 20.096 104.355 19.68C104.899 19.264 105.451 18.864 106.011 18.48C106.587 18.096 107.147 17.752 107.691 17.448C108.587 17.048 109.267 16.68 109.731 16.344C110.195 15.992 110.427 15.624 110.427 15.24C110.427 14.92 110.275 14.64 109.971 14.4C109.667 14.144 109.131 13.856 108.363 13.536C107.899 13.296 107.403 13.032 106.875 12.744C106.347 12.44 105.811 12.128 105.267 11.808C104.739 11.472 104.219 11.136 103.707 10.8C103.195 10.464 102.715 10.136 102.267 9.816C101.611 9.384 101.083 8.816 100.683 8.112C100.299 7.392 100.107 6.568 100.107 5.64C100.107 4.376 100.379 3.368 100.923 2.616C101.483 1.864 102.163 1.328 102.963 1.008C103.779 0.671998 104.571 0.503998 105.339 0.503998C106.427 0.503998 107.339 0.655998 108.075 0.959999C108.811 1.248 109.571 1.776 110.355 2.544C110.947 3.104 111.515 3.712 112.059 4.368C112.619 5.024 113.155 5.696 113.667 6.384C114.179 7.072 114.651 7.76 115.083 8.448C115.483 9.136 115.819 9.64 116.091 9.96C116.379 10.264 116.707 10.416 117.075 10.416C117.411 10.416 117.699 10.272 117.939 9.984C118.179 9.696 118.403 9.4 118.611 9.096C118.851 8.728 119.123 8.304 119.427 7.824C119.747 7.328 120.083 6.808 120.435 6.264C120.787 5.704 121.147 5.16 121.515 4.632C121.883 4.104 122.235 3.616 122.571 3.168C123.291 2.24 124.115 1.56 125.043 1.128C125.987 0.679998 126.971 0.455998 127.995 0.455998C129.755 0.455998 130.987 0.855998 131.691 1.656C132.411 2.44 132.771 3.456 132.771 4.704C132.771 5.376 132.595 6.104 132.243 6.888C131.907 7.656 131.363 8.44 130.611 9.24C130.115 9.784 129.571 10.344 128.979 10.92C128.403 11.48 127.811 12.008 127.203 12.504C126.611 13 126.051 13.44 125.523 13.824C124.755 14.272 124.227 14.632 123.939 14.904C123.651 15.176 123.507 15.424 123.507 15.648C123.507 15.84 123.635 16.048 123.891 16.272C124.163 16.48 124.507 16.696 124.923 16.92C126.267 17.688 127.435 18.432 128.427 19.152C129.419 19.856 130.283 20.568 131.019 21.288C131.771 22.008 132.435 22.76 133.011 23.544C133.315 23.944 133.539 24.408 133.683 24.936C133.843 25.448 133.923 25.928 133.923 26.376C133.923 27.208 133.651 27.96 133.107 28.632C132.563 29.288 131.875 29.8 131.043 30.168C130.227 30.552 129.379 30.744 128.499 30.744C127.475 30.744 126.603 30.608 125.883 30.336C125.179 30.064 124.587 29.704 124.107 29.256C123.787 28.92 123.427 28.504 123.027 28.008C122.643 27.496 122.243 26.96 121.827 26.4C121.427 25.84 121.043 25.304 120.675 24.792C120.307 24.264 119.987 23.808 119.715 23.424C119.235 22.688 118.811 22.192 118.443 21.936C118.091 21.68 117.731 21.552 117.363 21.552C116.995 21.552 116.603 21.72 116.187 22.056C115.787 22.376 115.275 23.008 114.651 23.952C114.219 24.512 113.803 25.048 113.403 25.56C113.003 26.072 112.603 26.568 112.203 27.048C111.819 27.528 111.411 28 110.979 28.464C110.547 28.928 110.075 29.392 109.563 29.856C109.083 30.208 108.507 30.512 107.835 30.768C107.163 31.024 106.235 31.152 105.051 31.152Z" fill="#CA5331"/>
</svg>
