<svg width="21" height="18" viewBox="0 0 21 18" fill="none" xmlns="http://www.w3.org/2000/svg">
<path d="M19.468 12.5588L18.7605 12.0262C17.4921 11.0817 15.8156 10.0238 14.0963 10.2275C13.7778 10.2652 13.4754 10.3458 13.1896 10.4704L12.3473 10.8468C12.2701 10.8804 12.1963 10.9169 12.1182 10.9556C11.9054 11.0612 11.664 11.1807 11.3886 11.2134C10.709 11.2939 9.74174 10.7902 8.66526 9.79521C7.60876 8.81861 7.48759 8.25537 7.57192 7.95475C7.66499 7.62307 8.05851 7.43935 8.48828 7.26524C8.54804 7.24099 8.60198 7.21903 8.65409 7.19649L9.50849 6.82021C11.7358 5.84461 10.1063 3.55044 9.57199 2.79829L9.11611 2.15118C8.73265 1.61878 7.71514 0.204478 5.82179 0.428779C5.47129 0.470303 5.11399 0.56972 4.76018 0.724295C4.52702 0.82234 1.32627 2.19766 0.570974 4.03716C-0.334205 6.22745 0.758238 8.89138 3.81664 11.9533C6.86088 15.0213 10.1248 16.7317 13.5179 17.037C14.1 17.0895 14.7357 17.0756 15.4077 16.996C17.6073 16.7355 19.5884 15.8465 19.7488 15.7732C20.4418 15.4665 20.8326 15.0789 20.9104 14.621C21.0421 13.8446 20.2071 13.1099 19.468 12.5588ZM19.1731 14.4572C19.1551 14.5636 19.0144 14.6754 18.7555 14.7894C18.7512 14.7914 18.746 14.7937 18.7416 14.7957C18.7237 14.8039 16.9336 15.6178 15.0591 15.8398C14.5632 15.8985 14.1073 15.9099 13.7041 15.8735C10.8455 15.6163 8.00577 14.0846 5.26177 11.3193C2.50519 8.5593 1.49382 6.22439 2.25675 4.3784C2.84754 2.93964 5.69158 1.73441 5.71954 1.72279C5.7252 1.72036 5.73076 1.71803 5.73631 1.71561C5.89759 1.64477 6.0477 1.59968 6.17036 1.58515C6.54782 1.54043 7.01048 1.8949 7.54249 2.63407L7.99637 3.27845C8.96948 4.64827 9.15748 5.55491 8.52397 5.83244L7.67368 6.20704C7.63979 6.22175 7.59978 6.23775 7.55574 6.25566C7.0816 6.44781 6.09492 6.84751 5.85343 7.70745C5.63431 8.48778 6.09461 9.3909 7.26011 10.4685C8.82952 11.9188 10.2939 12.5408 11.7369 12.3698C12.4066 12.2905 12.891 12.0504 13.1805 11.9071C13.2338 11.8806 13.2813 11.8566 13.3334 11.8339L14.1769 11.4569C14.2642 11.4188 14.3518 11.3949 14.4448 11.3839C14.8896 11.3312 15.7769 11.5341 17.4732 12.797L18.1802 13.3293C19.0492 13.9771 19.1998 14.3002 19.1731 14.4572Z" fill="black"/>
</svg>
