<svg width="24" height="24" viewBox="0 0 24 24" fill="none" xmlns="http://www.w3.org/2000/svg">
<g clip-path="url(#clip0_176_421)">
<path d="M18.045 24.0046C19.22 24.0046 20.3107 23.7169 21.2551 23.0718C21.7056 22.7642 22.3025 22.1324 22.8292 21.5751C23.012 21.3817 23.1845 21.1991 23.3218 21.0617C23.7563 20.6263 24.0003 20.0363 24.0003 19.4211C24.0003 18.806 23.7563 18.216 23.3218 17.7805L19.7672 14.2257C19.3317 13.7912 18.7417 13.5472 18.1266 13.5472C17.5115 13.5472 16.9214 13.7912 16.486 14.2257L15.5192 15.1922C15.3401 15.3761 15.1057 15.4962 14.8518 15.5342C14.5979 15.5723 14.3385 15.526 14.1134 15.4026C11.7637 14.1579 9.84199 12.2362 8.59719 9.8866C8.47377 9.66148 8.42753 9.40211 8.46554 9.1482C8.50355 8.8943 8.62372 8.65984 8.80765 8.48073L9.77426 7.51402C10.2085 7.07845 10.4524 6.48847 10.4524 5.8734C10.4524 5.25833 10.2085 4.66835 9.77426 4.23277L6.21959 0.678149C5.78412 0.243688 5.1941 -0.000305176 4.57897 -0.000305176C3.96383 -0.000305176 3.37381 0.243688 2.93834 0.678149C2.80095 0.815493 2.61828 0.988134 2.42487 1.17085C1.86758 1.69754 1.23589 2.29445 0.928154 2.74487C-1.74292 6.65523 1.71565 13.0597 6.32815 17.6721C9.82648 21.1705 14.3549 24.0046 18.045 24.0046ZM1.85717 3.37965C2.09656 3.02926 2.70701 2.45237 3.19779 1.98877C3.39711 1.80043 3.5854 1.62249 3.734 1.47385C3.95833 1.25004 4.26227 1.12435 4.57915 1.12435C4.89604 1.12435 5.19998 1.25004 5.42431 1.47385L8.97898 5.02857C9.20229 5.25317 9.32763 5.55701 9.32763 5.87373C9.32763 6.19044 9.20229 6.49429 8.97898 6.71888L8.01237 7.68549C7.65941 8.03569 7.42897 8.49052 7.35537 8.98226C7.28177 9.474 7.36894 9.97636 7.6039 10.4146C8.95374 12.9626 11.0376 15.0465 13.5856 16.3963C14.0238 16.6313 14.5262 16.7184 15.0179 16.6448C15.5097 16.5712 15.9645 16.3408 16.3147 15.9879L17.2814 15.0212C17.5057 14.7974 17.8096 14.6717 18.1265 14.6717C18.4434 14.6717 18.7473 14.7974 18.9717 15.0212L22.5264 18.5759C22.7502 18.8003 22.8759 19.1042 22.8759 19.4211C22.8759 19.7379 22.7502 20.0419 22.5264 20.2662C22.3778 20.4148 22.1999 20.603 22.0116 20.8023C21.548 21.2929 20.971 21.9034 20.6206 22.1429C17.2607 24.4382 11.269 21.022 7.12353 16.8767C2.97804 12.7314 -0.437971 6.73941 1.85717 3.37965Z" fill="black"/>
</g>
<defs>
<clipPath id="clip0_176_421">
<rect width="24" height="24" fill="white"/>
</clipPath>
</defs>
</svg>
