<svg width="50" height="50" viewBox="0 0 50 50" fill="none" xmlns="http://www.w3.org/2000/svg">
<path d="M47.9109 0.15495C47.7546 0.242946 46.4553 1.4749 45.0289 2.89261L42.4401 5.46406L37.3112 4.59388C34.4878 4.10501 30.756 3.46948 29.0072 3.16638C27.0143 2.82417 25.5587 2.62863 25.0995 2.62863C24.3277 2.62863 23.5169 2.85351 22.8623 3.23482C22.3739 3.52814 2.23929 23.6598 1.6629 24.4419C-0.183506 26.9254 -0.515664 30.1422 0.783657 32.9287C0.988813 33.3785 1.36005 34.0238 1.59451 34.3464C2.14159 35.0993 15.213 48.1619 15.848 48.5921C16.522 49.0418 17.8018 49.6187 18.6029 49.824C19.1207 49.9609 19.6287 50 20.6545 50C21.8463 49.9902 22.1296 49.9609 22.8819 49.736C23.9467 49.4036 24.7674 49.0027 25.588 48.3867C26.4965 47.7121 46.5041 27.6294 46.8167 27.0818C47.1782 26.4463 47.3834 25.6152 47.3834 24.8624C47.3834 24.4615 46.807 20.8439 45.9668 15.8867L44.5405 7.57598L47.1196 4.98497C48.5361 3.55748 49.7671 2.25709 49.855 2.08109C50.4509 0.878476 49.093 -0.461024 47.9109 0.15495ZM32.5242 6.7449C36.3636 7.39998 39.5874 7.95729 39.6851 7.9964C39.8219 8.05507 39.5679 8.34839 38.3565 9.56078L36.8618 11.0567L36.2268 10.7536C34.3706 9.88344 32.065 10.0105 30.3066 11.0665C29.0756 11.8096 28.0303 13.1197 27.5712 14.5081C27.3465 15.1828 27.3074 15.4663 27.3074 16.4734C27.3074 17.5098 27.3367 17.7444 27.5809 18.4289C27.9326 19.4457 28.3918 20.1986 29.1147 20.9123C29.8279 21.6358 30.5801 22.0954 31.5961 22.4474C32.28 22.6918 32.5144 22.7211 33.55 22.7211C34.5562 22.7211 34.8298 22.682 35.5234 22.4474C39.0794 21.2741 40.8477 17.1871 39.265 13.7944L38.9622 13.1589L40.4569 11.6629C41.6683 10.4505 41.9614 10.1963 42.02 10.3332C42.0591 10.431 42.6257 13.6575 43.2705 17.5C44.1204 22.4962 44.4526 24.6375 44.4135 25.009L44.3744 25.537L34.1752 35.7446C28.5676 41.3666 23.7611 46.0988 23.5071 46.265C22.4227 46.9592 20.9573 47.2526 19.6678 47.0375C19.2868 46.969 18.6322 46.7441 18.1633 46.5193L17.3329 46.1282L10.6311 39.4111L3.91961 32.7038L3.52884 31.8727C3.30414 31.4034 3.07945 30.7484 3.01106 30.367C2.79614 29.0764 3.08922 27.6098 3.78284 26.5245C3.94892 26.2703 8.67727 21.4598 14.2946 15.8476C23.5462 6.58846 24.5231 5.64006 24.8651 5.58139C25.08 5.54228 25.3144 5.52273 25.3926 5.54228C25.4707 5.55206 28.6849 6.09959 32.5242 6.7449ZM34.5465 13.2273C34.5855 13.2664 34.1459 13.7748 33.5695 14.3517C33.0029 14.9286 32.4851 15.525 32.4363 15.6814C31.9674 16.9036 33.1201 18.0573 34.3413 17.588C34.4976 17.5391 35.0935 17.0209 35.6699 16.4538C36.2463 15.877 36.7543 15.4468 36.7934 15.4859C36.8422 15.525 36.8716 15.965 36.8716 16.4538C36.8716 17.5 36.6957 17.9889 36.0802 18.6733C34.4488 20.4723 31.6254 20.1008 30.5606 17.94C29.652 16.0823 30.5801 13.8824 32.5535 13.2371C32.9638 13.1002 34.4097 13.1002 34.5465 13.2273Z" fill="white"/>
</svg>
