<svg width="20" height="20" viewBox="0 0 20 20" fill="none" xmlns="http://www.w3.org/2000/svg">
<path fill-rule="evenodd" clip-rule="evenodd" d="M12.5279 14.6684C11.263 15.4574 9.76021 15.9146 8.14802 15.9146C3.64802 15.9146 0 12.352 0 7.95732C0 3.56261 3.64802 0 8.14802 0C12.6481 0 16.296 3.56261 16.296 7.95732C16.296 9.76866 15.6763 11.4386 14.6327 12.7761C14.6545 12.795 14.6759 12.8146 14.6968 12.835L19.5789 17.6028C20.1404 18.1512 20.1404 19.0403 19.5789 19.5887C19.0173 20.1371 18.1069 20.1371 17.5454 19.5887L12.6633 14.8209C12.6138 14.7726 12.5687 14.7216 12.5279 14.6684ZM14.3789 7.95732C14.3789 11.318 11.5892 14.0423 8.14802 14.0423C4.70683 14.0423 1.91718 11.318 1.91718 7.95732C1.91718 4.59667 4.70683 1.87231 8.14802 1.87231C11.5892 1.87231 14.3789 4.59667 14.3789 7.95732Z" fill="white"/>
</svg>
