<svg width="24" height="24" viewBox="0 0 24 24" fill="none" xmlns="http://www.w3.org/2000/svg">
<g clip-path="url(#clip0_17_6)">
<path d="M23.4282 23.2329L16.6953 16.2308C18.4126 14.5085 19.4765 12.1341 19.4765 9.51554C19.4765 4.2684 15.2081 0 9.96097 0C4.71383 0 0.445435 4.2684 0.445435 9.51554C0.445435 14.7627 4.71383 19.0311 9.96097 19.0311C12.2642 19.0311 14.378 18.2078 16.0255 16.8416L22.7748 23.8609C22.8636 23.9538 22.9823 24 23.1015 24C23.2148 24 23.3276 23.9579 23.4155 23.8736C23.5958 23.7 23.6013 23.4132 23.4282 23.2329ZM9.96097 18.1248C5.21363 18.1248 1.35168 14.2629 1.35168 9.51554C1.35168 4.76819 5.21363 0.906242 9.96097 0.906242C14.7083 0.906242 18.5703 4.76819 18.5703 9.51554C18.5703 14.2629 14.7079 18.1248 9.96097 18.1248Z" fill="black"/>
</g>
<defs>
<clipPath id="clip0_17_6">
<rect width="24" height="24" fill="white"/>
</clipPath>
</defs>
</svg>
