<svg width="20" height="21" viewBox="0 0 20 21" fill="none" xmlns="http://www.w3.org/2000/svg">
<path d="M4.0405 20.4941C3.9664 20.4941 3.89229 20.47 3.83 20.4223C3.71974 20.3382 3.66461 20.1958 3.68788 20.0549L4.79443 13.2855L0.107974 8.49185C0.0106009 8.39191 -0.0244822 8.24276 0.0174027 8.10713C0.0596456 7.97113 0.171697 7.87194 0.306659 7.85128L6.78271 6.86355L9.67921 0.704638C9.73935 0.576147 9.86393 0.494995 9.99997 0.494995C10.1364 0.494995 10.2609 0.576147 10.3207 0.704638L13.2169 6.86355L19.6933 7.85128C19.8282 7.87194 19.9399 7.97075 19.9825 8.10713C20.0244 8.24276 19.9897 8.39229 19.892 8.49185L15.2055 13.2862L16.3117 20.0553C16.3346 20.1962 16.2795 20.3385 16.1696 20.4227C16.0593 20.5076 15.9129 20.5185 15.7923 20.4513L9.99997 17.2555L4.20697 20.4513C4.1547 20.4798 4.09742 20.4941 4.0405 20.4941ZM1.12717 8.48509L5.42879 12.8857C5.51292 12.9717 5.55158 13.0965 5.53153 13.2182L4.51591 19.4316L9.8335 16.4981C9.93768 16.4402 10.0619 16.4402 10.1668 16.4981L15.4837 19.4316L14.4684 13.2182C14.4484 13.0965 14.487 12.9721 14.5712 12.8857L18.8728 8.48509L12.9283 7.57852C12.8116 7.56086 12.711 7.48384 12.6588 7.37301L9.99997 1.72017L7.34117 7.37338C7.28891 7.48421 7.18831 7.56123 7.07161 7.57889L1.12717 8.48509Z" fill="#CA5331"/>
</svg>
