<svg width="51" height="17" viewBox="0 0 51 17" fill="none" xmlns="http://www.w3.org/2000/svg">
<path d="M20.8461 0.520142L18.2865 16.4881H22.3777L24.9357 0.520142H20.8461ZM33.1865 7.02458C31.7569 6.3168 30.8804 5.83911 30.8804 5.1152C30.8979 4.45701 31.6216 3.7827 33.2376 3.7827C34.5668 3.74923 35.5437 4.06238 36.2849 4.37395L36.6561 4.54007L37.2123 1.19918C36.4042 0.886036 35.123 0.540994 33.5403 0.540994C29.5002 0.540994 26.6554 2.64681 26.6377 5.65861C26.6043 7.88114 28.6745 9.11446 30.2237 9.85431C31.8063 10.6133 32.3451 11.1053 32.3451 11.7796C32.3276 12.8149 31.0654 13.2926 29.8876 13.2926C28.2556 13.2926 27.379 13.0466 26.0483 12.4697L25.5096 12.2237L24.9374 15.6957C25.8985 16.1239 27.6659 16.5009 29.5004 16.5201C33.794 16.5201 36.5878 14.4462 36.6229 11.2364C36.6369 9.47562 35.5453 8.127 33.1865 7.02458ZM47.7008 0.569558H44.5355C43.5602 0.569558 42.819 0.850813 42.3967 1.85422L36.3196 16.4881H40.6132L41.7957 13.3198H46.5994L47.2129 16.5009H50.9998L47.7008 0.569558ZM42.9865 10.1224C43.0693 10.1305 44.6345 4.95048 44.6345 4.95048L45.8808 10.1224C45.8808 10.1224 43.7946 10.1224 42.9865 10.1224ZM14.868 0.520142L10.8597 11.3689L10.423 9.22941C9.68188 6.76085 7.35828 4.07833 4.76514 2.74582L8.43556 16.4721H12.7643L19.1967 0.521893H14.868V0.520142Z" fill="#2394BC"/>
<path d="M9.07485 2.57967C8.76249 1.36212 7.76631 0.540961 6.41337 0.523438H0.0653748L0 0.818886C4.95188 2.04274 9.10824 5.80858 10.4566 9.35082L9.07485 2.57967Z" fill="#EFC75E"/>
</svg>
