<svg width="28" height="28" viewBox="0 0 28 28" fill="none" xmlns="http://www.w3.org/2000/svg">
<circle cx="14" cy="14" r="14" fill="black"/>
<g clip-path="url(#clip0_84_172)">
<path d="M22.9046 18.1399C22.8828 18.0929 22.8625 18.0539 22.8436 18.0227C22.5313 17.4603 21.9345 16.7699 21.0536 15.9514L21.035 15.9326L21.0256 15.9235L21.0162 15.914H21.0068C20.6069 15.5329 20.3538 15.2766 20.2477 15.1454C20.0537 14.8955 20.0103 14.6425 20.1163 14.3862C20.1912 14.1925 20.4726 13.7835 20.9598 13.1586C21.216 12.8274 21.419 12.562 21.5689 12.362C22.6499 10.925 23.1185 10.0066 22.9747 9.60672L22.9189 9.51327C22.8814 9.45701 22.7845 9.40554 22.6285 9.35859C22.4721 9.31175 22.2723 9.30401 22.0285 9.33522L19.3295 9.35387C19.2858 9.33837 19.2234 9.33982 19.142 9.35859C19.0608 9.37737 19.0201 9.38679 19.0201 9.38679L18.9732 9.41026L18.9359 9.43846C18.9046 9.4571 18.8703 9.4899 18.8327 9.53677C18.7954 9.58348 18.7642 9.6383 18.7392 9.70077C18.4454 10.4568 18.1113 11.1597 17.7363 11.8094C17.5051 12.1968 17.2928 12.5326 17.0989 12.8169C16.9053 13.1011 16.7428 13.3105 16.6117 13.4447C16.4804 13.5791 16.3619 13.6867 16.2555 13.768C16.1493 13.8494 16.0682 13.8837 16.012 13.8712C15.9557 13.8586 15.9027 13.8461 15.8525 13.8336C15.7651 13.7774 15.6948 13.7009 15.6418 13.604C15.5885 13.5072 15.5527 13.3853 15.5339 13.2385C15.5153 13.0916 15.5043 12.9652 15.5011 12.8589C15.4982 12.7528 15.4995 12.6027 15.5059 12.409C15.5124 12.2152 15.5153 12.0841 15.5153 12.0154C15.5153 11.7779 15.5199 11.5202 15.5292 11.2422C15.5387 10.9642 15.5463 10.7439 15.5527 10.5816C15.5591 10.4191 15.562 10.2473 15.562 10.0661C15.562 9.88488 15.551 9.74278 15.5292 9.63964C15.5077 9.53664 15.4746 9.43665 15.4311 9.33972C15.3872 9.24289 15.3231 9.16798 15.2389 9.1148C15.1546 9.06169 15.0498 9.01954 14.925 8.98823C14.5938 8.91329 14.1721 8.87275 13.6597 8.86645C12.4976 8.85397 11.7509 8.92901 11.4198 9.09146C11.2886 9.1601 11.1699 9.25388 11.0637 9.37251C10.9512 9.51002 10.9355 9.58506 11.0167 9.5974C11.3917 9.65356 11.6571 9.78792 11.8133 10.0003L11.8696 10.1129C11.9134 10.1941 11.9571 10.3379 12.0009 10.544C12.0446 10.7502 12.0728 10.9782 12.0852 11.228C12.1164 11.6842 12.1164 12.0747 12.0852 12.3995C12.0539 12.7245 12.0243 12.9774 11.9961 13.1586C11.968 13.3398 11.9258 13.4867 11.8696 13.5991C11.8133 13.7116 11.7759 13.7803 11.7571 13.8052C11.7383 13.8302 11.7227 13.8459 11.7103 13.8521C11.6291 13.8832 11.5446 13.8991 11.4572 13.8991C11.3697 13.8991 11.2635 13.8553 11.1386 13.7678C11.0137 13.6802 10.8841 13.56 10.7497 13.4069C10.6154 13.2538 10.4638 13.0398 10.2951 12.7649C10.1265 12.4901 9.9515 12.1652 9.7703 11.7903L9.62039 11.5185C9.52667 11.3436 9.39865 11.0889 9.2362 10.7547C9.07365 10.4204 8.92997 10.097 8.80507 9.7846C8.75515 9.6534 8.68014 9.55351 8.58019 9.48478L8.53328 9.45658C8.5021 9.43163 8.45204 9.40514 8.38337 9.37691C8.3146 9.34871 8.24284 9.32849 8.1678 9.31605L5.59991 9.3347C5.33751 9.3347 5.15947 9.39414 5.06572 9.51287L5.0282 9.56904C5.00945 9.60032 5 9.65028 5 9.71905C5 9.78779 5.01874 9.87215 5.05626 9.97203C5.43113 10.8531 5.83878 11.7027 6.27923 12.5212C6.71968 13.3397 7.10243 13.999 7.42723 14.4985C7.7521 14.9984 8.08325 15.4702 8.42066 15.9137C8.75807 16.3573 8.98141 16.6416 9.09069 16.7665C9.20009 16.8916 9.28603 16.9852 9.3485 17.0477L9.58284 17.2725C9.73278 17.4225 9.95297 17.6021 10.2435 17.8114C10.5341 18.0208 10.8558 18.2269 11.2088 18.4302C11.5619 18.633 11.9726 18.7986 12.4413 18.9267C12.9099 19.0549 13.3659 19.1063 13.8096 19.0815H14.8874C15.106 19.0626 15.2716 18.9939 15.3841 18.8752L15.4214 18.8283C15.4465 18.791 15.4699 18.733 15.4916 18.6551C15.5135 18.577 15.5244 18.4909 15.5244 18.3974C15.518 18.1288 15.5385 17.8867 15.5852 17.6711C15.6319 17.4557 15.6852 17.2932 15.7447 17.1838C15.8042 17.0745 15.8714 16.9823 15.9461 16.9075C16.0211 16.8325 16.0744 16.7872 16.1057 16.7715C16.1369 16.7558 16.1617 16.7451 16.1805 16.7387C16.3304 16.6888 16.5069 16.7372 16.7101 16.8841C16.9132 17.0309 17.1037 17.2122 17.2819 17.4277C17.4599 17.6434 17.6739 17.8853 17.9238 18.1539C18.1738 18.4226 18.3924 18.6224 18.5798 18.7538L18.7672 18.8662C18.8923 18.9413 19.0547 19.01 19.2547 19.0725C19.4543 19.1349 19.6292 19.1505 19.7794 19.1193L22.1785 19.0819C22.4158 19.0819 22.6004 19.0426 22.7314 18.9646C22.8626 18.8866 22.9406 18.8005 22.9657 18.7069C22.9908 18.6133 22.9922 18.507 22.9705 18.3881C22.9483 18.2696 22.9264 18.1867 22.9046 18.1399Z" fill="white"/>
</g>
<defs>
<clipPath id="clip0_84_172">
<rect width="18" height="18" fill="white" transform="translate(5 5)"/>
</clipPath>
</defs>
</svg>
